<svg xmlns="http://www.w3.org/2000/svg" version="1.1" xmlns:xlink="http://www.w3.org/1999/xlink" xmlns:svgjs="http://svgjs.dev/svgjs" viewBox="0 0 4.107842549362883 1.5162537164188388"><g transform="matrix(1,0,0,1,0.20278257310332393,0.22862685820941941)"><rect width="4.107842549362883" height="4.107842549362883" x="-0.20278257310332415" y="-1.5244212746814414" fill="#ffffff"></rect><g><path d=" M 0.498 0.24449999999999994 L 0.17400000000000002 1.0065 Q 0.1635 1.035 0.14175000000000001 1.0507499999999999 Q 0.12 1.0665 0.0945 1.0665 Q 0.054 1.0665 0.0345 1.044 Q 0.015 1.0214999999999999 0.015 0.9884999999999999 Q 0.015 0.975 0.0195 0.96 L 0.393 0.06299999999999994 Q 0.405 0.03299999999999992 0.42975 0.01649999999999996 Q 0.4545 0 0.483 0.0029999999999998916 Q 0.51 0.0029999999999998916 0.53325 0.018749999999999822 Q 0.5565 0.034499999999999975 0.5670000000000001 0.06299999999999994 L 0.936 0.942 Q 0.9435 0.9614999999999999 0.9435 0.978 Q 0.9435 1.0185 0.91725 1.0425 Q 0.891 1.0665 0.8595 1.0665 Q 0.8325 1.0665 0.81075 1.05 Q 0.789 1.0334999999999999 0.777 1.005 L 0.4545 0.25349999999999995 L 0.498 0.24449999999999994 M 0.2205 0.8234999999999999 L 0.303 0.6509999999999999 L 0.708 0.6509999999999999 L 0.7365 0.8234999999999999 L 0.2205 0.8234999999999999 M 1.258465576171875 0.9674999999999999 Q 1.258465576171875 1.0065 1.229965576171875 1.0327499999999998 Q 1.2014655761718749 1.059 1.163965576171875 1.059 Q 1.121965576171875 1.059 1.096465576171875 1.0327499999999998 Q 1.070965576171875 1.0065 1.070965576171875 0.9674999999999999 L 1.070965576171875 0.10049999999999992 Q 1.070965576171875 0.06149999999999989 1.097965576171875 0.035250000000000004 Q 1.124965576171875 0.008999999999999897 1.166965576171875 0.008999999999999897 Q 1.202965576171875 0.008999999999999897 1.230715576171875 0.035250000000000004 Q 1.258465576171875 0.06149999999999989 1.258465576171875 0.10049999999999992 L 1.258465576171875 0.9674999999999999 M 1.9530021972656249 0.008999999999999897 Q 2.097002197265625 0.008999999999999897 2.167502197265625 0.0764999999999999 Q 2.238002197265625 0.1439999999999999 2.238002197265625 0.2759999999999999 Q 2.238002197265625 0.3464999999999999 2.203502197265625 0.39974999999999994 Q 2.169002197265625 0.45299999999999996 2.101502197265625 0.48224999999999996 Q 2.0340021972656253 0.5115 1.935002197265625 0.5115 L 1.941002197265625 0.44399999999999995 Q 1.987502197265625 0.44399999999999995 2.047502197265625 0.4567499999999999 Q 2.107502197265625 0.4694999999999999 2.163752197265625 0.5017499999999999 Q 2.220002197265625 0.5339999999999999 2.256752197265625 0.59175 Q 2.293502197265625 0.6495 2.293502197265625 0.7394999999999999 Q 2.293502197265625 0.8384999999999999 2.261252197265625 0.9015 Q 2.229002197265625 0.9644999999999999 2.176502197265625 0.9989999999999999 Q 2.124002197265625 1.0334999999999999 2.064002197265625 1.04625 Q 2.004002197265625 1.059 1.9485021972656251 1.059 L 1.575002197265625 1.059 Q 1.536002197265625 1.059 1.509752197265625 1.0327499999999998 Q 1.483502197265625 1.0065 1.483502197265625 0.9674999999999999 L 1.483502197265625 0.10049999999999992 Q 1.483502197265625 0.06149999999999989 1.509752197265625 0.035250000000000004 Q 1.536002197265625 0.008999999999999897 1.575002197265625 0.008999999999999897 L 1.9530021972656249 0.008999999999999897 M 1.9260021972656252 0.18599999999999994 L 1.659002197265625 0.18599999999999994 L 1.678502197265625 0.16199999999999992 L 1.678502197265625 0.4334999999999999 L 1.6605021972656249 0.41999999999999993 L 1.9305021972656249 0.41999999999999993 Q 1.974002197265625 0.41999999999999993 2.008502197265625 0.39149999999999996 Q 2.043002197265625 0.3629999999999999 2.043002197265625 0.30899999999999994 Q 2.043002197265625 0.24449999999999994 2.0107521972656253 0.21524999999999994 Q 1.978502197265625 0.18599999999999994 1.9260021972656252 0.18599999999999994 M 1.9380021972656252 0.597 L 1.665002197265625 0.597 L 1.678502197265625 0.585 L 1.678502197265625 0.9015 L 1.663502197265625 0.8865 L 1.9485021972656251 0.8865 Q 2.017502197265625 0.8865 2.0580021972656253 0.84975 Q 2.098502197265625 0.813 2.098502197265625 0.7394999999999999 Q 2.098502197265625 0.6719999999999999 2.071502197265625 0.6419999999999999 Q 2.0445021972656248 0.6119999999999999 2.007002197265625 0.6044999999999999 Q 1.969502197265625 0.597 1.9380021972656252 0.597" fill="#000000" fill-rule="nonzero"></path></g><g></g><g clip-path="url(#SvgjsClipPath1003)"><g clip-path="url(#SvgjsClipPath10016ad13d1a-d0c5-4a03-a156-c1a70cbf16e9)"><path d=" M 3.065205440996675 0.8778826131885613 C 2.998530637939443 0.8747993853015217 2.9480427812891694 0.9233602245223957 2.9148017306320235 0.9119908216889371 C 3.0131759704028815 0.8892520160220199 3.02521982933663 0.6842173615338856 2.976562639244286 0.4069195534432602 C 2.9410091676718606 0.20467907422775555 3.058460879993776 0.06949880155536244 3.191617784365299 0.02777887420885765 C 3.239311465742943 0.007159787714280233 3.293749708123486 -0.0030534046615384933 3.352523739720179 -0.0003555802603788308 C 3.4649652067256547 0.004751015927530525 3.5701803583708815 0.05639508303544406 3.646682950318052 0.13434293805466435 C 3.5877162169784196 0.05774399523602397 3.5045654148998198 -0.0023789485612485187 3.34577917871728 -0.024346947256405765 C 2.86469927746763 -0.05257775259711223 2.853715278120051 0.3270446809946403 2.86739710186879 0.38418074777634315 C 2.881078925617528 0.441316814558046 2.7469585125313047 0.5800620694748286 2.753799424405674 0.6075220678437753 C 2.760640336280043 0.6349820662127218 2.8436947874871725 0.657046415779349 2.8436947874871725 0.6669705555407579 C 2.8436947874871725 0.6768946953021666 2.8208596309487857 0.6905765190509049 2.8216304379205455 0.705799956743163 C 2.8224012448923053 0.7210233944354211 2.8688423649408397 0.7340307620838693 2.8688423649408397 0.7340307620838693 C 2.8688423649408397 0.7340307620838693 2.8368538756128037 0.7644776374683856 2.8360830686410434 0.7812426891041635 C 2.8353122616692836 0.7980077407399413 2.86508468095351 0.7995493546834612 2.86354306700999 0.8239261251653681 C 2.8620014530664704 0.848302895647275 2.8360830686410434 0.9229748210365156 2.9069973100429545 0.9352113817132042 C 2.977911551444866 0.9474479423898927 2.9870648842345147 0.8864578407493902 3.0811033347892227 0.9170974178768465 C 3.174467329243641 0.9475442932613626 3.138913857671216 1.0826282150622855 3.1383357524423956 1.0846515833631556 C 3.2328559573544537 0.9633458361824406 3.1315911914394965 0.881254893690011 3.065205440996675 0.8778826131885613 Z" fill="#0f3094" transform="matrix(1,0,0,1,0,0)" fill-rule="nonzero"></path></g><g clip-path="url(#SvgjsClipPath10016ad13d1a-d0c5-4a03-a156-c1a70cbf16e9)"><path d=" M 3.6618100371388405 0.6595515384375686 C 3.599471023297758 0.7138934299466418 3.514104151175349 0.744725708817038 3.417271525348011 0.7402935687294184 C 3.2863306910202974 0.7343198146982791 3.1652176455825223 0.6653325907257679 3.087751544920652 0.5650313335255105 C 3.040250565285948 0.5035594775276582 3.009225584672612 0.4302364643389973 3.002481023669713 0.352481311062717 C 2.9895700068927344 0.20477542509922553 3.0677105636548947 0.08134995874617099 3.191714135236769 0.02777887420885765 C 3.0585572308652456 0.06959515242683242 2.9411055185433304 0.20467907422775555 2.976658990115756 0.4069195534432602 C 3.0253161802080997 0.6842173615338856 3.0132723212743513 0.8892520160220199 2.9148980815034937 0.9119908216889371 C 2.9481391321606396 0.9233602245223956 2.998530637939443 0.8747030344300516 3.065301791868145 0.8778826131885613 C 3.1317838931824364 0.881254893690011 3.232952308225924 0.9632494853109705 3.1386248050568057 1.0847479342346258 C 3.1386248050568057 1.0847479342346258 3.138528454185336 1.0848442851060955 3.138528454185336 1.0848442851060955 C 3.383452369462045 1.0491944626622 3.615368917090306 0.825275037365948 3.702277403156235 0.6169644532478339 C 3.690040842479547 0.632476943554502 3.6765517204737486 0.6466405216605903 3.6618100371388405 0.6595515384375686 Z" fill="#0b2268" transform="matrix(1,0,0,1,0,0)" fill-rule="nonzero"></path></g><g clip-path="url(#SvgjsClipPath10016ad13d1a-d0c5-4a03-a156-c1a70cbf16e9)"><path d=" M 3.5049508183857 0.6419193289585609 C 3.497435450411041 0.6419193289585609 3.4904018367937315 0.6389324519429912 3.4851025388628822 0.6336331540121419 C 3.479803240932033 0.6283338560812926 3.4769127147879333 0.6212038915925134 3.4769127147879333 0.6136885236178543 C 3.4769127147879333 0.6025118225273357 3.4836572757908324 0.592491331894457 3.493677766423711 0.5880591918068375 L 3.493003310323421 0.5333318968118844 C 3.487125907163752 0.5308267741536646 3.4822120127187826 0.5264909849375152 3.478936083088803 0.520998985263726 C 3.4757565043302936 0.5156996873328766 3.4744075921297135 0.5095332315587975 3.4747929956155934 0.5033667757847183 L 3.4516687864627964 0.49161196946537966 C 3.445887734174597 0.49691126739622904 3.4382760153284684 0.49999449528326867 3.4302788929964594 0.49999449528326867 C 3.4127430343889213 0.49999449528326867 3.398579456282833 0.48573456630571055 3.3986758071543033 0.46829505856964265 C 3.3986758071543033 0.4508555508335748 3.4129357361318613 0.43678832359895664 3.4302788929964594 0.43678832359895664 C 3.447814751603997 0.43678832359895664 3.4619783297100852 0.4510482525765148 3.461881978838615 0.4684877603125827 C 3.461881978838615 0.46964397077022263 3.461785627967145 0.4708001812278623 3.461689277095675 0.4719563916855023 L 3.4843317318911224 0.4834221453904308 C 3.485873345834642 0.481976882318381 3.4876076615211016 0.48062797011780123 3.4895346789505015 0.4795681105316313 C 3.4897273806934415 0.4794717596601613 3.4900164333078516 0.47927905791722136 3.4902091350507916 0.4791827070457514 L 3.4762382586876432 0.424937166408148 L 3.4120685782886317 0.424937166408148 L 3.4120685782886317 0.416650991461729 L 3.4111050695739316 0.416650991461729 C 3.404649561185442 0.416650991461729 3.399157561511653 0.41202614963116957 3.3979050001825435 0.40595604472856034 L 3.3957852810102036 0.40595604472856034 L 3.377574966302376 0.4151093775182092 C 3.377767668045316 0.42561162250843787 3.3722756683715263 0.4355357622698466 3.3631223355818776 0.4410277619436359 C 3.361966125124238 0.4417022180439258 3.360809914666598 0.44228032327274575 3.359653704208958 0.4427620776300957 L 3.359171949851608 0.48717982937776005 C 3.3641821951680475 0.4894922502930398 3.368421633512727 0.4933462851518393 3.3712158087853563 0.4981638287253387 C 3.374106334929456 0.5031740740417782 3.375262545387096 0.5089551263299774 3.3746844401582763 0.5146398277467067 L 3.4105269643451117 0.535837019470104 C 3.4109123678309916 0.5355479668556941 3.4112977713168715 0.5353552651127541 3.411683174802752 0.5350662124983442 C 3.4149591044327314 0.5331391950689444 3.4187167884200607 0.5321756863542445 3.4225708232788605 0.5321756863542445 C 3.4302788929964594 0.5321756863542445 3.437505208356708 0.536318773827454 3.4414555940869778 0.5430633348303531 C 3.4443461202310774 0.5480735801467925 3.4451169272028372 0.5539509833064616 3.4435753132593176 0.559539333851721 C 3.4420336993157976 0.5651276843969804 3.4384687170714083 0.5698488770990099 3.433458471754969 0.5727394032431095 C 3.430182542124989 0.5746664206725093 3.4264248581376595 0.5756299293872091 3.4225708232788605 0.5756299293872091 C 3.4148627535612612 0.5756299293872091 3.4076364382010125 0.5714868419139997 3.403686052470743 0.5647422809111006 C 3.402144438527223 0.5619481056384709 3.401180929812523 0.5589612286229013 3.400891877198113 0.5557816498643917 L 3.3634113881962877 0.5336209494262945 C 3.3627369320959977 0.5341027037836444 3.362062475995708 0.5344881072695243 3.361388019895418 0.5348735107554042 C 3.357341283293678 0.537185931670684 3.352620090591649 0.5384384929997938 3.3479952487610896 0.5384384929997938 C 3.3383601616140908 0.5384384929997938 3.329399530567382 0.5332355459404146 3.3246783378653526 0.5249493709939955 C 3.321113355620963 0.5186865643484464 3.320149846906263 0.5114602489881973 3.321980513464193 0.504522986242358 C 3.3238111800221226 0.49758572349651886 3.328339670981212 0.4918046712083196 3.3345061267552913 0.48814333809246 C 3.3353732845985213 0.48766158373511015 3.336240442441751 0.48727618024923025 3.337107600284981 0.48689077676335024 L 3.337589354642331 0.4429547793730358 C 3.3314228988682517 0.4405460075862861 3.3262199518088726 0.4362102183701366 3.322847671307423 0.4304291660819373 C 3.3188009347056835 0.4236846050790382 3.3177410751195135 0.41568748274702916 3.3196680925489135 0.4080757639009001 C 3.321595109978313 0.40046404505477107 3.3264126535518126 0.3940085366662819 3.3332535654261815 0.3900581509360124 C 3.3377820563852714 0.3873603265348527 3.3429850034446504 0.3859150634628029 3.34818795050403 0.3859150634628029 C 3.355992371093099 0.3859150634628029 3.363507739067758 0.38909464222131257 3.368999738741547 0.3944902910236318 L 3.3900042287220047 0.3838916951619331 L 3.3900042287220047 0.30334236661302333 L 3.3978086493110737 0.30334236661302333 C 3.3985794562828335 0.2965978056101241 3.404360508571033 0.2913948585507448 3.4112014204454018 0.2913948585507448 L 3.4121649291601015 0.2913948585507448 L 3.4121649291601015 0.2843612449334357 L 3.450416225133687 0.2843612449334357 L 3.450030821647807 0.273666298200267 C 3.4383723661999386 0.2715465790279273 3.42825552469559 0.2644166145391481 3.4222817706644504 0.25410707129185944 C 3.4124539817745116 0.23724566878461156 3.4160189640189014 0.2161448279326842 3.4303752438679296 0.20352286377011575 L 3.3973268949537236 0.14031669208580366 C 3.3968451405963735 0.14031669208580366 3.3963633862390235 0.14031669208580366 3.395881631881674 0.14031669208580366 C 3.3863428956061448 0.14031669208580366 3.3776713171738457 0.13540279764083427 3.3727574227288764 0.12730932443735526 C 3.3719866157571166 0.1260567631082454 3.3714085105282967 0.12480420177913559 3.370830405299477 0.12345528957855575 L 3.3391309685858506 0.12220272824944589 C 3.3376857055138007 0.12461150003619559 3.335855038955871 0.12663486833706533 3.3337353197835315 0.1284655348949951 L 3.34394851215935 0.16478981343918053 C 3.3656274582400973 0.1653679186680005 3.383066965976165 0.18319282988994826 3.383066965976165 0.20496812684216553 C 3.383066965976165 0.2221185819638234 3.3722756683715267 0.23714931791314148 3.3563777745789785 0.24273766845840078 L 3.3579193885224985 0.27096847379910727 C 3.368036230026847 0.273473596457327 3.376611457587676 0.27983275397434615 3.3818144046470553 0.28888973589252503 C 3.3869210008349646 0.2977540160677639 3.3882699130355447 0.30796720844358266 3.3856684395058547 0.3178913482049915 C 3.383066965976165 0.3277191370949302 3.376707808459146 0.33600531204134915 3.367939879155377 0.3411119082292586 C 3.362158826867178 0.34448418873070813 3.3555106167357485 0.34621850441716795 3.3488624066043196 0.34621850441716795 C 3.3385528633570307 0.34621850441716795 3.328532372724152 0.34188271520101843 3.321402408235373 0.33456004896929936 L 3.290184725879097 0.35180685496242714 C 3.2920153924370266 0.35749155637915636 3.2929789011517263 0.36327260866735567 3.2929789011517263 0.36924636269849503 C 3.2929789011517263 0.3889019404783725 3.282958410518848 0.4069195534432603 3.2665787623689497 0.41732544756201895 L 3.2771773582306487 0.4445927441880256 C 3.2870051471205874 0.4464234107459554 3.2942314624808366 0.45490228743531425 3.2942314624808366 0.46521183068260297 C 3.2942314624808366 0.4767739352590016 3.284789077076778 0.48611996979159044 3.273323323371849 0.48611996979159044 C 3.2676386219551197 0.48611996979159044 3.26243567489574 0.4839038997477808 3.258485289165471 0.4799535140175113 C 3.2545349034352014 0.4760031282872417 3.252415184262862 0.47070383035639235 3.252415184262862 0.46511547981113305 C 3.252415184262862 0.46049063798057377 3.2538604473349118 0.4561548487644243 3.256558271736071 0.45258986652003463 L 3.2459596758743725 0.4253225698940281 C 3.2425873953729227 0.425900675122848 3.239311465742943 0.426189727737258 3.2360355361129636 0.426189727737258 C 3.204625152013748 0.426189727737258 3.1789958202027306 0.4006567467977112 3.1789958202027306 0.3691500118270251 C 3.1789958202027306 0.33764327685633905 3.2045288011422777 0.3121102959167923 3.2360355361129636 0.3121102959167923 C 3.252800587748742 0.3121102959167923 3.2686984815412896 0.31962566389145136 3.279489779145928 0.3323439789254897 L 3.3112855667310246 0.31471176944648194 C 3.308395040586925 0.2990065773968739 3.3156213559471737 0.28291598186138595 3.329688583181792 0.27482250865790697 C 3.331615600611192 0.2736662982002671 3.3337353197835315 0.27270278948556725 3.3358550389558714 0.27193198251380735 L 3.3343134250123514 0.2438938789160408 C 3.3161031103045238 0.2399434931857713 3.3027103391701953 0.22375654677881335 3.3027103391701953 0.20467907422775572 C 3.3027103391701953 0.1904191452501975 3.3103220580163244 0.17721907585880914 3.322558618693013 0.17008911137003005 L 3.3124417771886643 0.13376483282584456 C 3.3091658475586847 0.13318672759702466 3.306082619671645 0.13193416626791477 3.3032884443990156 0.130103499709985 L 3.274190481215079 0.1424364112581435 C 3.274479533829489 0.15631093674982177 3.26734956934071 0.16931830439827014 3.255113008664021 0.17644826888704923 C 3.2493319563758223 0.17982054938849878 3.242683746244393 0.18155486507495858 3.236035536112964 0.18155486507495858 C 3.2244734315365653 0.18155486507495858 3.2136821339319264 0.17644826888704923 3.2064558185716776 0.16758398871181035 L 3.1746600309865816 0.18232567204671854 C 3.1754308379583414 0.18569795254816812 3.1758162414442213 0.18916658392108765 3.1758162414442213 0.19253886442253723 C 3.1758162414442213 0.19552574143810686 3.1755271888298116 0.1986089693251465 3.1749490836009917 0.20159584634071612 L 3.208190134258137 0.2159521261897443 C 3.210695256916357 0.21325430178858462 3.2135857830604566 0.21094188087330493 3.216861712690436 0.20911121431537513 C 3.2226427649786356 0.20573893381392555 3.2292909751100645 0.2039082672559958 3.236035536112964 0.2039082672559958 C 3.249621008990232 0.2039082672559958 3.2623393240242704 0.2112309334877149 3.2690838850271695 0.2229857398070534 C 3.2796824808888685 0.24119605451488113 3.273419674243319 0.26460931628208817 3.2552093595354914 0.2752079121437869 C 3.249428307247292 0.2785801926452365 3.242780097115863 0.28041085920316616 3.236035536112964 0.28041085920316616 C 3.2251478876368553 0.28041085920316616 3.2148383443895665 0.2757860173726068 3.2076120290293173 0.2677888950405978 L 3.1657957508113426 0.2901422972216349 C 3.1675300664978026 0.3019934544124435 3.1620380668240133 0.313940962474722 3.1515358218337846 0.3202037691202712 C 3.149705155275855 0.3212636287064411 3.147778137846455 0.322130786549671 3.145754769545585 0.32280524264996086 L 3.1436350503732453 0.36067113513766613 C 3.147970839589395 0.3629835560529458 3.1517285235767245 0.3664521874258654 3.154329997106414 0.3706916257705448 C 3.1579913302222735 0.376858081544624 3.1591475406799137 0.3840843969048731 3.1574132249934537 0.3911180105221822 C 3.155678909306994 0.39805527326802137 3.1513431200908446 0.40402902729916057 3.1451766643167653 0.40769036041502016 C 3.140937225972086 0.4101954830732399 3.1362160332700566 0.4115443952738197 3.1313021388250872 0.4115443952738197 C 3.1218597534210284 0.4115443952738197 3.113091824117259 0.4065341499573803 3.10817792967229 0.39853702762537135 C 3.1053837543996603 0.39391218579481185 3.1041311930705504 0.38861288786396253 3.1044202456849606 0.3832172390616433 L 3.0732025633286844 0.36712664352615526 C 3.067710563654895 0.37194418709965466 3.0605805991661157 0.3746420115008144 3.053161582062927 0.3746420115008144 C 3.0480549858750177 0.3746420115008144 3.043044740558578 0.3732930993002345 3.038612600470959 0.3708843275134848 C 3.0239672680075205 0.3627908543100059 3.018667970076671 0.3443878378592382 3.02666509240868 0.3297425053958 C 3.0301337237815997 0.3234796987502508 3.035433021712449 0.3188548569196914 3.041984880972408 0.3162533833900017 L 3.0420812318438784 0.273762649071737 C 3.0396724600571288 0.2721246842567472 3.037745442627729 0.2699086142129375 3.036203828684209 0.26740349155471776 C 3.033313302540109 0.26258594798121837 3.0324461446968796 0.25699759743595907 3.033795056897459 0.2515055977621698 C 3.035143969098039 0.24610994895985044 3.0385162495994886 0.24148510712929105 3.0433337931729882 0.23859458098519143 C 3.0466097228029674 0.23666756355579166 3.050367406790297 0.23560770396962177 3.0541250907776267 0.23560770396962177 C 3.0614477570093457 0.23560770396962177 3.0683850197551847 0.2394617388284213 3.0721427037425144 0.24582089634544052 C 3.0781164577736537 0.2557450361068493 3.074936879015144 0.26865605288382766 3.0650127392537354 0.27462980691496686 C 3.0647236866393253 0.27482250865790686 3.0645309848963853 0.27491885952937684 3.064241932281975 0.2751115612723168 L 3.0641455814105054 0.3161570325185317 C 3.0653981427396153 0.31663878687588165 3.066650704068725 0.3172168921047016 3.067903265397835 0.3178913482049915 C 3.078598212131004 0.32376875136466077 3.084668317033613 0.3356199085554692 3.083415755704503 0.34756741661774776 L 3.114537087189309 0.36356166128176576 C 3.115500595904009 0.3627908543100059 3.1163677537472387 0.3621163982097159 3.1174276133334087 0.361538292980896 C 3.1187765255339888 0.3607674860091361 3.1201254377345684 0.3600930299088462 3.121667051678088 0.3595149246800262 L 3.123786770850428 0.321649032192321 C 3.1183911220481084 0.3191439095341013 3.113766280217549 0.31500082206089186 3.1107794032019793 0.3098942258729825 C 3.10673266660024 0.3030533139986133 3.1055764561426003 0.2949598407951343 3.1075034735719997 0.2872517710775353 C 3.1094304910013997 0.2795437013599363 3.114344385446369 0.27299184209997707 3.1211852973207383 0.2689451054982376 C 3.1258101391512976 0.26624728109707796 3.131013086210677 0.2648020180250281 3.1364087350129966 0.2648020180250281 C 3.1431532960158957 0.2648020180250281 3.149705155275855 0.2671144389403078 3.154908102335234 0.27116117554204733 L 3.1984586962396686 0.24794061551778024 C 3.1978805910108488 0.24399022978751073 3.1979769418823185 0.24003984405724121 3.198555047111139 0.2360894583269717 L 3.1658921016828128 0.2219258802208835 C 3.1570278215075738 0.23319893218287208 3.143442348630306 0.23984714231430126 3.1289897179098074 0.23984714231430126 C 3.1030713334843805 0.23984714231430126 3.0818741417609834 0.21874630146237392 3.0818741417609834 0.19273156616547715 C 3.0818741417609834 0.1668131817400504 3.1029749826129107 0.14561599001665304 3.1289897179098074 0.14561599001665304 C 3.1430569451444255 0.14561599001665304 3.156257014535814 0.15187879666220225 3.165121294711053 0.1625737433953709 L 3.1982659944967287 0.14725395483164283 C 3.196820731424679 0.13241592062526467 3.204047046784928 0.11796328990476646 3.217054414433376 0.11044792193010741 C 3.2228354667215755 0.10707564142865786 3.229483676853005 0.10524497487072806 3.236228237855904 0.10524497487072806 C 3.2480793950467124 0.10524497487072806 3.259352447008701 0.1108333254159874 3.26657876236895 0.1201793599485762 L 3.291726339822617 0.10948441321540756 C 3.291726339822617 0.10909900972952757 3.291726339822617 0.10880995711511765 3.291726339822617 0.10842455362923767 C 3.291726339822617 0.09426097552314947 3.3032884443990156 0.08269887094675092 3.3175483733765736 0.08269887094675092 C 3.3286287235956222 0.08269887094675092 3.338263810742621 0.08973248456406005 3.3418287929870107 0.09994567693987877 L 3.3720829666285868 0.10119823826898863 C 3.3743953875438666 0.0966697473098992 3.377864018916786 0.0928157124510997 3.3822961590044054 0.09021423892140998 C 3.386535597349085 0.0877091162631903 3.3912567900511146 0.08636020406261047 3.396170684496084 0.08636020406261047 C 3.405613069900143 0.08636020406261047 3.4143809992039116 0.09137044937904983 3.419294893648881 0.09936757171105884 C 3.42517229680855 0.10909900972952763 3.4243051389653205 0.12123921953474609 3.4173678762194815 0.12991079796704502 L 3.450512576005157 0.19369507488017704 C 3.4528249969204365 0.1933096713942971 3.4552337687071866 0.19302061877988713 3.457642540493936 0.19302061877988713 C 3.472095171214434 0.19302061877988713 3.4854879423487626 0.2007286884974862 3.492714257709012 0.21315795091711462 C 3.50389095879953 0.2325244760825822 3.497339099539571 0.2573830009218391 3.4779725743741037 0.2685597020123577 C 3.4762382586876437 0.26961956159852757 3.474311241258244 0.27048671944175745 3.4723842238288443 0.27125752641351736 L 3.4728659781861944 0.28416854319049567 L 3.514971309018579 0.28416854319049567 L 3.514971309018579 0.2924547181369147 C 3.5193070982347283 0.29428538469484444 3.522486676993238 0.29842847216805396 3.523064782222058 0.3031496648700834 L 3.530869202811127 0.3031496648700834 L 3.530869202811127 0.40557064124268055 L 3.522872080479118 0.40557064124268055 C 3.5219085717644183 0.40981007958736004 3.5190180456203186 0.4133750618317496 3.515067659890049 0.41510937751820937 L 3.515067659890049 0.42455176292226815 L 3.501289485269841 0.42455176292226815 L 3.5147786072756393 0.47638853177312157 C 3.517283729933859 0.4771593387448815 3.519692501720608 0.4783155492025214 3.5219085717644183 0.47966446140310115 L 3.5449364300457455 0.46386291848202316 C 3.5448400791742753 0.4628994097673233 3.544743728302805 0.4619359010526234 3.544743728302805 0.46087604146645356 C 3.544743728302805 0.4521081121626846 3.5499466753621847 0.4442073407021457 3.5577510959512537 0.44064235845775607 L 3.5568839381080237 0.4150130266467393 C 3.554571517192744 0.4142422196749793 3.5523554471489343 0.41327871096027946 3.5502357279765944 0.4120261496311696 C 3.5428167108734057 0.4075940095435502 3.537613763814026 0.4005603959262411 3.5355903955131565 0.3921778701083521 C 3.5334706763408166 0.38379534429046314 3.5348195885413967 0.3751237658581642 3.539251728629016 0.36780109962644514 C 3.5424313073875258 0.3624054508241258 3.547152500089555 0.35816601247944635 3.552740850634814 0.3554681880782866 L 3.5515846401771745 0.3224198391640808 C 3.5452254826601552 0.3200110673773311 3.539926184729306 0.3156752781611816 3.5363612024849163 0.3097015241300424 C 3.532314465883177 0.30286061225567323 3.531158255425537 0.29476713905219426 3.5330852728549367 0.28705906933459524 C 3.5350122902843366 0.2793509996169962 3.539926184729306 0.272799140357037 3.5467670966036753 0.2687524037552976 C 3.5486941140330748 0.2675961932976577 3.5508138332054147 0.2666326845829578 3.5530299032492243 0.2659582284826679 L 3.555438675035974 0.23300623043993202 C 3.538288219914316 0.22712882728026274 3.5267261153379175 0.21103823174477476 3.5267261153379175 0.1925388644225371 C 3.5267261153379175 0.18752861910609775 3.5275932731811475 0.18271107553259835 3.5293275888676074 0.1779898828305689 L 3.498880713483091 0.1567926911071716 C 3.4983989591257414 0.15717809459305154 3.497820853896921 0.1574671472074615 3.4972427486681013 0.15775619982187145 C 3.492714257709012 0.16035767335156112 3.4876076615211025 0.16170658555214093 3.482501065333193 0.16170658555214093 C 3.4719988203429644 0.16170658555214093 3.462267382324496 0.15611823500688163 3.4569680843936466 0.14706125308870277 C 3.453017698663377 0.14022034121433366 3.451957839077207 0.13231956975379464 3.4539812073780767 0.12470785090766559 C 3.4560045756789464 0.11709613206153655 3.460822119252446 0.11073697454451736 3.467663031126815 0.10678658881424785 C 3.4721915220859048 0.10418511528455818 3.477298118273814 0.10283620308397834 3.4824047144617234 0.10283620308397834 C 3.492906959451952 0.10283620308397834 3.5026383974704207 0.10842455362923767 3.50793769540127 0.1174815355474165 C 3.5115990285171295 0.12384069306443571 3.512755238974769 0.1312597101676248 3.5112136250312496 0.1383896746564039 L 3.5418532021587055 0.1597795681227412 C 3.5495612718763048 0.153227708862782 3.5591963590233036 0.14966272661839244 3.569505902270592 0.14966272661839244 C 3.593111865780739 0.14966272661839244 3.6123820400747366 0.16883655004092007 3.6123820400747366 0.1925388644225371 C 3.6123820400747366 0.21344700353152446 3.5976403567398285 0.2308865112675923 3.577503024602601 0.2346441952549218 L 3.5750942528158514 0.2675961932976577 C 3.577888428088481 0.2689451054982375 3.5803935507467006 0.2706794211846973 3.5826096207905103 0.272799140357037 L 3.616910531033826 0.25709394830742893 C 3.6168141801623563 0.2519873521195196 3.6180667414914662 0.24697710680308022 3.6207645658926255 0.24254496671546077 C 3.625582109466125 0.2344514935119818 3.634446389641364 0.22953759906701238 3.643888775045423 0.22953759906701238 C 3.6488026694903923 0.22953759906701238 3.6535238621924218 0.2308865112675922 3.657763300537101 0.23339163392581191 C 3.6639297563111803 0.23705296704167145 3.66826554552733 0.2430267210728107 3.66999986121379 0.24996398381864982 C 3.6717341769002494 0.2569012465644889 3.6706743173140794 0.26422391279620805 3.6669166333267498 0.27039036857028725 C 3.6643151597970602 0.2747261577864367 3.6604611249382604 0.2782911400308262 3.6559326339791713 0.280603560946106 L 3.6559326339791713 0.3198183656343911 C 3.66556772112617 0.32415415485054055 3.6719268786431893 0.3339819437404793 3.671830527771719 0.344773241345118 C 3.671637826028779 0.3594185738085561 3.6594976162235606 0.3712697309993646 3.6449486346315925 0.3712697309993646 C 3.6449486346315925 0.3712697309993646 3.6445632311457126 0.3712697309993646 3.6445632311457126 0.3712697309993646 C 3.6373369157854634 0.37117338012789464 3.6306887056540345 0.36828285398379496 3.625678460337595 0.36307990692441566 C 3.6206682150211558 0.3578769598650363 3.617970390619996 0.3511323988621372 3.618066741491466 0.3439060835018881 C 3.6182594432344057 0.3333074876401894 3.624425899008485 0.3239614531076006 3.633964635284014 0.3198183656343911 L 3.633964635284014 0.2815670696608059 C 3.6326157230834344 0.2809889644319859 3.631363161754324 0.28041085920316605 3.6301106004252146 0.27964005223140614 C 3.6288580390961047 0.2788692452596462 3.6277018286384646 0.2780984382878863 3.6266419690522946 0.2771349295731864 L 3.5919556553230994 0.29303282336573444 C 3.592533760551919 0.30401682271331304 3.58694541000666 0.31461541857501174 3.577406673731131 0.32020376912027104 C 3.576732217630841 0.32058917260615094 3.5759614106590814 0.32097457609203095 3.5752869545587913 0.32135997957791085 L 3.576443165016431 0.3537338723918268 C 3.578948287674651 0.35450467936358676 3.581357059461401 0.35556453894975654 3.5835731295052105 0.35691345115033646 C 3.5951352340816087 0.3638507138961755 3.6010126372412783 0.3771471341590339 3.5987002163259985 0.39025085267895226 L 3.634542740512834 0.4111589917879397 C 3.6370478631710537 0.4100991322017697 3.639842038443683 0.40952102697294984 3.642539862844843 0.40952102697294984 L 3.642828915459253 0.40952102697294984 C 3.6541983182927114 0.40971372871588985 3.6632553002108903 0.41905976324847866 3.6630625984679503 0.43042916608193726 C 3.6628698967250104 0.44160586717245587 3.6537165639353613 0.4506628490906347 3.642539862844843 0.4506628490906347 L 3.6422508102304327 0.4506628490906347 C 3.6308814073969744 0.4504701473476947 3.6218244254787955 0.44112411281510594 3.6220171272217354 0.42975470998164733 C 3.6220171272217354 0.4296583591101773 3.6220171272217354 0.4295620082387074 3.6220171272217354 0.42946565736723735 L 3.58752351523548 0.40942467610147987 C 3.5850183925772603 0.41154439527381953 3.5821278664331606 0.41327871096027935 3.579044638546121 0.41453127228938924 L 3.5800081472608207 0.4429547793730357 C 3.58598190129196 0.44709786684624514 3.5896432344078195 0.4539387787206143 3.5895468835363493 0.4614541466952734 C 3.5894505326648796 0.4737870582434318 3.579430042032001 0.48371119800484064 3.5670971304838424 0.48371119800484064 L 3.567000779612372 0.48371119800484064 C 3.563917551725333 0.48371119800484064 3.560930674709763 0.4830367419045507 3.5582328503086034 0.4818805314469109 L 3.5349159394128664 0.4978747761109289 C 3.538191869042846 0.5106894420164372 3.5326998693690568 0.5246603183795855 3.521041413921188 0.5315012302539547 C 3.519403449106198 0.5324647389686545 3.5175727825482683 0.5333318968118844 3.5157421159903386 0.5339100020407044 L 3.5164165720906286 0.5876737883209576 C 3.526822466209387 0.592009577537107 3.5338560798266965 0.6022227699129258 3.5338560798266965 0.6136885236178543 C 3.5330852728549367 0.6292973647959924 3.520463308692368 0.6419193289585609 3.5049508183857 0.6419193289585609 L 3.5049508183857 0.6419193289585609 Z M 3.497050046925161 0.3958392032242116 C 3.5011931343983704 0.3958392032242116 3.5045654148998198 0.392466922722762 3.5045654148998198 0.3883238352495526 L 3.5045654148998198 0.3801340111746036 L 3.4910762928940215 0.3958392032242116 L 3.497050046925161 0.3958392032242116 Z M 3.4691082941988647 0.3958392032242116 L 3.5045654148998198 0.35460103023505674 L 3.5045654148998198 0.35296306542006706 L 3.4677593819982846 0.3958392032242116 L 3.4691082941988647 0.3958392032242116 Z M 3.4157299114044912 0.38928734396425246 C 3.416211665761841 0.392948677080112 3.4193912445203507 0.3958392032242116 3.42324527937915 0.3958392032242116 L 3.4279664720811795 0.3958392032242116 L 3.4984953099972107 0.313844611603252 C 3.4980135556398606 0.3137482607317819 3.497531801282511 0.3137482607317819 3.497050046925161 0.3137482607317819 L 3.480766749646733 0.3137482607317819 L 3.4157299114044912 0.38928734396425246 Z" fill="#000000" transform="matrix(1,0,0,1,0,0)" fill-rule="nonzero"></path></g><g clip-path="url(#SvgjsClipPath10016ad13d1a-d0c5-4a03-a156-c1a70cbf16e9)"><path d=" M 3.3171629698906937 0.0878054671346602 C 3.3171629698906937 0.0878054671346602 3.3171629698906937 0.0878054671346602 3.3171629698906937 0.0878054671346602 C 3.327472513137982 0.0878054671346602 3.335951389827341 0.09512813336637928 3.337782056385271 0.10485957138484808 L 3.3749734927726864 0.10640118532836787 C 3.376611457587676 0.10158364175486845 3.3798873872176554 0.09734420341018898 3.384512229048215 0.09455002813755933 C 3.3880772112926048 0.09243030896521962 3.392027597022874 0.09137044937904973 3.3958816318816734 0.09137044937904973 C 3.4033969998563327 0.09137044937904973 3.4107196660880517 0.09522448423784924 3.4148627535612612 0.10206539611221838 C 3.4202584023635803 0.11112237803039723 3.4185240866771207 0.12239542999238584 3.4112014204454018 0.12942904360969495 L 3.4475256989895873 0.19947612716837623 C 3.4507052777480967 0.19860896932514635 3.4539812073780762 0.19812721496779637 3.457160786136586 0.19812721496779637 C 3.4694936976847446 0.19812721496779637 3.481441205747023 0.20448637248481558 3.488089415878452 0.21585577531827416 C 3.4980135556398606 0.23290987956846204 3.4921361524801915 0.25478152739214927 3.4750820482300036 0.2647056671535581 C 3.472480574700314 0.2662472810970779 3.4697827502991547 0.26730714068324773 3.466988575026525 0.26807794765500764 L 3.4680484346126947 0.2962124021242441 L 3.474022188643834 0.2962124021242441 L 3.474022188643834 0.28917878850693496 L 3.4810558022611433 0.28917878850693496 L 3.4810558022611433 0.2962124021242441 L 3.4883784684928623 0.2962124021242441 L 3.4883784684928623 0.28917878850693496 L 3.495412082110171 0.28917878850693496 L 3.495412082110171 0.2962124021242441 L 3.5027347483418905 0.2962124021242441 L 3.5027347483418905 0.28917878850693496 L 3.5097683619591993 0.28917878850693496 L 3.5097683619591993 0.2963087529957141 C 3.5142968529182887 0.29659780561012405 3.5179581860341482 0.3002591387259836 3.5179581860341482 0.304883980556543 L 3.5179581860341482 0.30815991018652256 L 3.5256662557517475 0.30815991018652256 L 3.5256662557517475 0.31519352380383164 L 3.5179581860341482 0.31519352380383164 L 3.5179581860341482 0.32251619003555076 L 3.5256662557517475 0.32251619003555076 L 3.5256662557517475 0.3295498036528599 L 3.5179581860341482 0.3295498036528599 L 3.5179581860341482 0.33687246988457903 L 3.5256662557517475 0.33687246988457903 L 3.5256662557517475 0.3439060835018881 L 3.5179581860341482 0.3439060835018881 L 3.5179581860341482 0.3512287497336072 L 3.5256662557517475 0.3512287497336072 L 3.5256662557517475 0.3582623633509163 L 3.5179581860341482 0.3582623633509163 L 3.5179581860341482 0.36558502958263545 L 3.5256662557517475 0.36558502958263545 L 3.5256662557517475 0.3726186431999446 L 3.5179581860341482 0.3726186431999446 L 3.5179581860341482 0.3799413094316637 L 3.5256662557517475 0.3799413094316637 L 3.5256662557517475 0.3869749230489728 L 3.5179581860341482 0.3869749230489728 L 3.5179581860341482 0.39429758928069186 L 3.5256662557517475 0.39429758928069186 L 3.5256662557517475 0.40133120289800106 L 3.5179581860341482 0.40133120289800106 L 3.5179581860341482 0.4033545711988708 C 3.5179581860341482 0.40797941302943025 3.5142968529182887 0.4116407461452898 3.5097683619591993 0.4119297987596997 L 3.5097683619591993 0.4203123245775887 L 3.5027347483418905 0.4203123245775887 L 3.5027347483418905 0.4120261496311696 L 3.495412082110171 0.4120261496311696 L 3.495412082110171 0.4203123245775887 L 3.4944485733954713 0.4203123245775887 L 3.5101537654450796 0.48091702273221115 C 3.514104151175349 0.4817841805754409 3.5179581860341482 0.4835184962619009 3.521137764792658 0.48621632066306053 L 3.5495612718763043 0.466657093754653 C 3.5490795175189542 0.4650191289396631 3.5487904649045445 0.4633811641246734 3.5487904649045445 0.46155049756674366 C 3.5487904649045445 0.45336067349179465 3.5543788154498035 0.44661611248889554 3.5619905342959326 0.4446890950594958 L 3.560834323838293 0.4119297987596998 C 3.5577510959512533 0.41135169353087986 3.554764218935684 0.41019548307324005 3.551970043663054 0.4085575182582502 C 3.538962676014606 0.40075309766918116 3.534819588541396 0.3838916951619333 3.5426240091304653 0.37088432751348493 C 3.5459962896319146 0.36519962609675566 3.551199236691294 0.36124924036648615 3.5569802889794935 0.3591295211941464 L 3.5555350259074436 0.3193366112770414 C 3.5491758683904244 0.31779499733352157 3.543394816102225 0.3138446116032521 3.5397334829863656 0.3077745067006429 C 3.5326998693690563 0.29582699863836437 3.5365539042278558 0.28050721007463625 3.5485014122901344 0.2733772455858572 C 3.551199236691294 0.27183563164233737 3.5539934119639236 0.27077577205616754 3.5568839381080233 0.27029401769881756 L 3.559870815123593 0.23001935342436258 C 3.543202114359285 0.2259726168226231 3.5308692028111266 0.21103823174477498 3.5308692028111266 0.19311696965135722 C 3.5308692028111266 0.18723956649168794 3.5322181150117067 0.18174756681789864 3.534530535926986 0.17683367237292924 L 3.4980135556398606 0.1513970423048524 C 3.496857345182221 0.1524569018910223 3.4955084329816413 0.15342041060572217 3.494159520781061 0.15419121757748208 C 3.4903054859222618 0.1564072876212918 3.4860660475775824 0.15756349807893166 3.481826609232903 0.15756349807893166 C 3.473347732543544 0.15756349807893166 3.4650615575971253 0.1531313579913122 3.4605330666380354 0.1453269374022432 C 3.4536921547636665 0.1335721310829047 3.457738891365406 0.11844504426211655 3.4694936976847446 0.11170048325921739 C 3.4733477325435436 0.10948441321540767 3.4775871708882233 0.10832820275776783 3.4818266092329027 0.10832820275776783 C 3.4903054859222618 0.10832820275776783 3.498591660868681 0.11276034284538727 3.5031201518277704 0.12056476343445627 C 3.5068778358150996 0.12702027182294545 3.5073595901724497 0.13453563979760452 3.50504716925717 0.14108749905756374 L 3.541660500415765 0.16662047999711055 C 3.5485977631616046 0.15958686637980138 3.558136499437133 0.15515472629218197 3.568831446170302 0.15515472629218197 C 3.5898359361507595 0.15515472629218197 3.606890040400947 0.17220883054236982 3.606890040400947 0.1932133205228272 C 3.606890040400947 0.2130616000456447 3.591762953580159 0.22924854645260268 3.5723964284146916 0.2310792130105324 L 3.5694095513991217 0.27135387728498744 C 3.5738416914867415 0.27279914035703723 3.577792077217011 0.2754969647581969 3.5808753051040503 0.2792546487455264 L 3.621439021992915 0.26065893055181877 C 3.6205718641496856 0.25564868523537937 3.621439021992915 0.25034938730453 3.624329548137015 0.24562819460250057 C 3.6284726356102244 0.23869093185666146 3.6357953018419433 0.2349332478693319 3.6433106698166027 0.2349332478693319 C 3.647164704675402 0.2349332478693319 3.6511150904056717 0.23599310745550178 3.654680072650061 0.2381128266278415 C 3.66518231764029 0.24437563327339074 3.6685545981417396 0.25796110615065904 3.6621954406247204 0.2684633511408877 C 3.6594012653520904 0.27308819297144715 3.6552581778788813 0.27626777172995676 3.650536985176852 0.27790573654494655 L 3.650536985176852 0.3235760496217208 C 3.6597866688379703 0.3262738740228805 3.66653122984087 0.3349454524551794 3.6664348789693997 0.34506229395952814 C 3.6662421772264597 0.35710615289327663 3.656414388336521 0.3668375909117454 3.6443705294027726 0.3668375909117454 C 3.6442741785313024 0.3668375909117454 3.6441778276598327 0.3668375909117454 3.6439851259168927 0.3668375909117454 C 3.631748565240204 0.3666448891688054 3.6220171272217354 0.3566243985359267 3.6222098289646754 0.3443878378592382 C 3.6224025307076153 0.3344636980978295 3.6290507408390447 0.3261775231514105 3.6381077227572236 0.32347969875025084 L 3.6381077227572236 0.27838749090229653 C 3.6359880035848837 0.27790573654494655 3.633868284412544 0.2770385787017167 3.6319412669831443 0.27588236824407675 C 3.6300142495537444 0.27472615778643694 3.6283762847387546 0.2733772455858571 3.626931021666705 0.2717392807708673 L 3.58607825216343 0.2902386480931049 C 3.5879089187213595 0.30025913872598364 3.58347677863374 0.31076138371621237 3.5742270949726214 0.3162533833900017 C 3.5727818319005715 0.3171205412332315 3.5712402179570515 0.3178913482049915 3.5696022531420617 0.3183731025623414 L 3.5710475162141115 0.3576842581220965 C 3.5742270949726214 0.35826236335091644 3.5774066737311307 0.35941857380855624 3.5803935507467006 0.36115288949501606 C 3.5914739009657493 0.3678010996264452 3.5960987427963085 0.38090481814636357 3.592437409680449 0.39275597533717205 L 3.633579231798134 0.41674734233319904 C 3.6359880035848837 0.4153020792611492 3.638782178857513 0.4144349214179193 3.641769055873083 0.4144349214179193 C 3.641865406744553 0.4144349214179193 3.641961757616023 0.4144349214179193 3.642058108487493 0.4144349214179193 C 3.650729686919792 0.4145312722893894 3.657666949665631 0.4217575876496385 3.6575705987941607 0.43042916608193743 C 3.657474247922691 0.43900439364276633 3.6504406343053817 0.4459416563886054 3.641865406744553 0.4459416563886054 C 3.641769055873083 0.4459416563886054 3.641672705001613 0.4459416563886054 3.6415763541301427 0.4459416563886054 C 3.632904775697844 0.4458453055171354 3.6259675129520046 0.4386189901568863 3.626063863823475 0.4299474117245874 C 3.626063863823475 0.42898390300988753 3.626160214694945 0.4280203942951876 3.626352916437885 0.42705688558048777 L 3.58607825216343 0.40364362381328067 C 3.5825132699190405 0.4074013078006102 3.578081129831421 0.4100027813302999 3.5733599371293914 0.41125534265940966 L 3.5746124984585013 0.4458453055171354 C 3.5802971998752304 0.44883218253270507 3.58415123473403 0.4547095856923743 3.58405488386256 0.4615504975667434 C 3.58395853299109 0.47118558471374217 3.576154112402021 0.4790863561742812 3.5664226743835523 0.4790863561742812 C 3.5664226743835523 0.4790863561742812 3.566326323512082 0.4790863561742812 3.566326323512082 0.4790863561742812 C 3.562954043010633 0.4790863561742812 3.559774464252123 0.47812284745958133 3.5571729907224334 0.47638853177312157 L 3.528460431024377 0.49614046042446913 C 3.5330852728549367 0.5076062141293978 3.528845834510257 0.5210953361351961 3.5178618351626785 0.5275508445236853 C 3.5154530633759284 0.5289961075957351 3.512851589846239 0.529959616310435 3.5101537654450796 0.5305377215392549 L 3.510828221545369 0.5913351214368173 C 3.520848712178248 0.594032945837977 3.528171378409967 0.6030899277561559 3.528171378409967 0.6138812253607945 C 3.528171378409967 0.6267922421377728 3.517669133419738 0.6371981362565317 3.50485446751423 0.6371981362565317 C 3.50485446751423 0.6371981362565317 3.50485446751423 0.6371981362565317 3.50475811664276 0.6371981362565317 C 3.491847099865782 0.6371981362565317 3.4814412057470228 0.626695891266303 3.4814412057470228 0.6137848744893246 C 3.4814412057470228 0.603186278627626 3.4885711702358018 0.5942256475809171 3.4983026082542708 0.5914314723082873 L 3.497531801282511 0.5299596163104351 C 3.4915580472513716 0.5282253006239753 3.4862587493205224 0.5242749148937058 3.4828864688190726 0.5184938626055066 C 3.479610539189093 0.5129055120602473 3.4786470304743933 0.506546354543228 3.4798995918035027 0.5005726005120887 L 3.450608926876627 0.48573456630571066 C 3.445695032431657 0.4915156185939099 3.438372366199938 0.4951769517097694 3.430182542124989 0.4951769517097694 C 3.430182542124989 0.4951769517097694 3.430182542124989 0.4951769517097694 3.4300861912535194 0.4951769517097694 C 3.415248157047141 0.4951769517097694 3.4033006489848625 0.4831330927760209 3.4033969998563327 0.4682950585696428 C 3.4033969998563327 0.4535533752347347 3.415440858790081 0.44160586717245615 3.430182542124989 0.44160586717245615 C 3.430182542124989 0.44160586717245615 3.430182542124989 0.44160586717245615 3.4302788929964594 0.44160586717245615 C 3.4451169272028372 0.44160586717245615 3.457064435265116 0.4536497261062047 3.4569680843936457 0.4684877603125828 C 3.4569680843936457 0.4706074794849226 3.456679031779236 0.47263084778579223 3.456197277421886 0.47465421608666203 L 3.485295240605822 0.48939589942157014 C 3.487125907163752 0.4871798293777605 3.489341977207562 0.4852528119483607 3.4918470998657813 0.48371119800484086 C 3.4930996611948912 0.48294039103308095 3.4944485733954713 0.4823622858042611 3.495701134724581 0.4818805314469111 L 3.479706890060563 0.4202159737061188 L 3.4738294869008937 0.4202159737061188 L 3.4738294869008937 0.4119297987596998 L 3.4665068206691747 0.4119297987596998 L 3.4665068206691747 0.4202159737061188 L 3.4594732070518655 0.4202159737061188 L 3.4594732070518655 0.4119297987596998 L 3.4521505408201465 0.4119297987596998 L 3.4521505408201465 0.4202159737061188 L 3.4451169272028372 0.4202159737061188 L 3.4451169272028372 0.4119297987596998 L 3.4377942609711183 0.4119297987596998 L 3.4377942609711183 0.4202159737061188 L 3.430760647353809 0.4202159737061188 L 3.430760647353809 0.4119297987596998 L 3.42343798112209 0.4119297987596998 L 3.42343798112209 0.4202159737061188 L 3.4164043675047813 0.4202159737061188 L 3.4164043675047813 0.4119297987596998 L 3.410623315216582 0.4119297987596998 C 3.4058057716430823 0.4119297987596998 3.401951736784283 0.4080757639009003 3.401951736784283 0.4032582203274009 L 3.401951736784283 0.40123485202653114 L 3.394243667066684 0.40123485202653114 L 3.394243667066684 0.4011385011550611 L 3.3719866157571166 0.4123152022455797 C 3.373335527957696 0.42185393852110853 3.368903387870077 0.4316817274110473 3.360039107694838 0.43688467447042667 C 3.358208441136908 0.43804088492806653 3.3561850728360385 0.4388116918998264 3.354161704535169 0.43938979712864645 L 3.353583599306349 0.49055210987921005 C 3.358786546365728 0.49209372382272987 3.3634113881962877 0.4955623551956494 3.3663019143403874 0.5006689513835587 C 3.369288791355957 0.5058718984429381 3.369963247456247 0.5117493016026073 3.368517984384197 0.5171449504049267 L 3.4100452099877616 0.5417144226297737 C 3.411008718702462 0.5408472647865438 3.4120685782886317 0.5399801069433139 3.4132247887462714 0.539305650843024 C 3.4159226131474307 0.5377640368995041 3.4188131392915304 0.5369932299277442 3.42170366543563 0.5369932299277442 C 3.4275810685952997 0.5369932299277442 3.433265770012029 0.5400764578147839 3.4363489978990684 0.5454721066171031 C 3.4409738397296277 0.5535655798205821 3.4382760153284684 0.5638751230678708 3.430182542124989 0.5685963157699002 C 3.4274847177238295 0.57013792971342 3.4245941915797298 0.5709087366851799 3.4217036654356305 0.5709087366851799 C 3.415826262275961 0.5709087366851799 3.410141560859232 0.5678255087981403 3.407058332972192 0.562429859995821 C 3.405324017285732 0.5595393338517214 3.404649561185442 0.5562634042217418 3.4048422629283825 0.5531801763347022 L 3.362158826867178 0.5279362480095653 C 3.3610026164095377 0.5289961075957352 3.359653704208958 0.5300559671819051 3.358208441136908 0.530923125025135 C 3.3547398097639887 0.5329464933260047 3.3508857749051892 0.5339100020407046 3.3472244417893298 0.5339100020407046 C 3.3396127229432007 0.5339100020407046 3.3321937058400115 0.5299596163104351 3.3280506183668024 0.522829651821656 C 3.321980513464193 0.5122310559599573 3.3255454957085826 0.498741933954159 3.336144091570281 0.4926718290515498 C 3.337782056385271 0.49170832033684986 3.3394200212002607 0.4910338642365599 3.3410579860152505 0.49055210987921005 L 3.3415397403726006 0.4396788497430564 C 3.335276933727051 0.43813723579953656 3.329592232310322 0.434283200940737 3.3261236009374024 0.4282130960381278 C 3.319186338191563 0.4164582897187893 3.323040373050363 0.4013312028980012 3.334795179369701 0.39439394015216206 C 3.3387455650999707 0.39208151923688234 3.34308135431612 0.3909253087792425 3.3473207926608 0.3909253087792425 C 3.354836160635459 0.3909253087792425 3.362255177738648 0.39439394015216206 3.3669763704406774 0.40065674679771124 L 3.394436368809624 0.386782221306033 L 3.393954614452274 0.386782221306033 L 3.393954614452274 0.37974860768872387 L 3.4016626841698727 0.37974860768872387 L 3.4016626841698727 0.3725222923284746 L 3.393954614452274 0.3725222923284746 L 3.393954614452274 0.3654886787111654 L 3.4016626841698727 0.3654886787111654 L 3.4016626841698727 0.35816601247944635 L 3.393954614452274 0.35816601247944635 L 3.393954614452274 0.3511323988621372 L 3.4016626841698727 0.3511323988621372 L 3.4016626841698727 0.3438097326304181 L 3.393954614452274 0.3438097326304181 L 3.393954614452274 0.336776119013109 L 3.4016626841698727 0.336776119013109 L 3.4016626841698727 0.3294534527813899 L 3.393954614452274 0.3294534527813899 L 3.393954614452274 0.32241983916408073 L 3.4016626841698727 0.32241983916408073 L 3.4016626841698727 0.31509717293236167 L 3.393954614452274 0.31509717293236167 L 3.393954614452274 0.3080635593150525 L 3.4016626841698727 0.3080635593150525 L 3.4016626841698727 0.30507668229948304 C 3.4016626841698727 0.30025913872598364 3.4055167190286726 0.2964051038671841 3.4103342626021718 0.2964051038671841 L 3.416115314890371 0.2964051038671841 L 3.416115314890371 0.28937149024987496 L 3.42314892850768 0.28937149024987496 L 3.42314892850768 0.2964051038671841 L 3.4304715947393993 0.2964051038671841 L 3.4304715947393993 0.28937149024987496 L 3.437505208356708 0.28937149024987496 L 3.437505208356708 0.2964051038671841 L 3.4448278745884275 0.2964051038671841 L 3.4448278745884275 0.28937149024987496 L 3.4518614882057364 0.28937149024987496 L 3.4518614882057364 0.2964051038671841 L 3.454944716092776 0.2964051038671841 L 3.4538848565066065 0.2695232107270575 C 3.4425154536731477 0.26865605288382766 3.4317241560685092 0.2623932462382784 3.42555770029443 0.2517946503765797 C 3.416211665761841 0.23580040571256172 3.4208365075924005 0.21547037183239431 3.4355781909273087 0.2048717759706956 L 3.3993502632545933 0.13511374502642434 C 3.3980013510540132 0.13540279764083432 3.3965560879819634 0.1354991485123043 3.3951108249099136 0.1354991485123043 C 3.3875954569352547 0.1354991485123043 3.3802727907035353 0.13174146452497476 3.376129703230326 0.12480420177913565 C 3.374973492772686 0.12287718434973588 3.374106334929456 0.12085381604886614 3.3736245805721063 0.11883044774799639 L 3.335565986341461 0.1172888338044766 C 3.3338316706550013 0.12114286866327612 3.331037495382372 0.12432244742178572 3.327472513137982 0.12653851746559544 L 3.3395163720717305 0.16970370788415 C 3.3403835299149605 0.16960735701268 3.3412506877581905 0.16960735701268 3.3421178456014204 0.16960735701268 C 3.3616770725098277 0.16960735701268 3.3774786154309058 0.18540889993375806 3.3774786154309058 0.20496812684216564 C 3.3774786154309058 0.22154047673500357 3.3660128617259772 0.2355113530981518 3.3505967222907795 0.23926903708548136 L 3.352523739720179 0.2750152104008469 C 3.3623515286101178 0.2763641226014267 3.371504861399767 0.28204882401815606 3.376900510202086 0.29129850767927484 C 3.386150193863205 0.3072927523432929 3.3807545450608854 0.3277191370949303 3.3647603003968674 0.3369688207560491 C 3.359461002466018 0.34005204864308874 3.353776301049289 0.3414973117151386 3.3480915996325598 0.3414973117151386 C 3.337974758128211 0.3414973117151386 3.328146969238272 0.33687246988457914 3.3216914608497827 0.32858629493816016 L 3.2835365157476675 0.34978348666155756 C 3.2860416384058873 0.35585359156416674 3.2873905506064673 0.36250180169559587 3.2873905506064673 0.36943906444143504 C 3.2873905506064673 0.3893836948357225 3.2762138495159485 0.4066305008288504 3.2598342013660506 0.4154947810040893 L 3.272937919885969 0.449313936890055 C 3.281609498318268 0.449506638632995 3.288643111935577 0.45663660312177407 3.288643111935577 0.46540453242554297 C 3.288643111935577 0.474268812600782 3.281416796575328 0.4814951279610311 3.272552516400089 0.4814951279610311 C 3.272552516400089 0.4814951279610311 3.272552516400089 0.4814951279610311 3.272552516400089 0.4814951279610311 C 3.26368823622485 0.4814951279610311 3.256461920864601 0.474268812600782 3.256461920864601 0.46530818155407316 C 3.256461920864601 0.46077969059498364 3.258388938294001 0.45673295399324426 3.26137581530957 0.4537460769776746 L 3.248850202018472 0.42002327196317857 C 3.2447071145452626 0.42108313154934846 3.240371325329113 0.4216612367781684 3.235939185241494 0.4216612367781684 C 3.207130274671967 0.4216612367781684 3.18371701290476 0.3982479750109613 3.18371701290476 0.36943906444143493 C 3.18371701290476 0.34063015387190865 3.2070339238004975 0.31721689210470155 3.235939185241494 0.31721689210470155 C 3.2532823421060915 0.31721689210470155 3.2686984815412896 0.32579211966553046 3.2781408669453485 0.3387994873139788 L 3.3166812155333436 0.3174095938476415 C 3.3124417771886643 0.3029569631271433 3.318415531219803 0.2870590693345953 3.3319046532256014 0.27915829787405627 C 3.3346988284982313 0.2775203330590665 3.3376857055138007 0.2763641226014267 3.3406725825293706 0.27559331562966677 L 3.3387455650999707 0.23994349318577124 C 3.321113355620963 0.23792012488490144 3.3074315318722247 0.2229857398070533 3.3074315318722247 0.2048717759706956 C 3.3074315318722247 0.19061184699313738 3.3159104085615834 0.17827893544497897 3.328146969238272 0.17278693577118961 L 3.3161031103045238 0.12971809622410496 C 3.311478268473964 0.12952539448116498 3.3072388301292848 0.12769472792323522 3.303866549627835 0.12499690352207554 L 3.2690838850271695 0.13964223598551373 C 3.2706254989706895 0.15245690189102215 3.26455539406808 0.1656569712824105 3.2527042368772716 0.1724978831567796 C 3.2474049389464223 0.1755811110438192 3.2417202375296927 0.17702637411586902 3.2360355361129636 0.17702637411586902 C 3.225051536765385 0.17702637411586902 3.2143565900322164 0.17163072531354973 3.207997432515197 0.16189928729508093 L 3.168878978698382 0.17991690025996868 C 3.170227890898962 0.18396363686170816 3.170902346999252 0.1882994260778576 3.170902346999252 0.19282791703694707 C 3.170902346999252 0.19697100451015656 3.170324241770432 0.20092139024042605 3.169168031312792 0.2046790742277556 L 3.209442695587247 0.22211858196382342 C 3.2120441691169366 0.21874630146237384 3.215223747875446 0.2158557753182742 3.2191741336057156 0.21354335440299452 C 3.2244734315365653 0.21046012651595494 3.230254483824764 0.2090148634439051 3.235939185241494 0.2090148634439051 C 3.247501289817892 0.2090148634439051 3.258677990908411 0.21498861747504439 3.26484444668249 0.22568356420821306 C 3.2740941303436086 0.24167780887223106 3.2686984815412896 0.2621041936238685 3.2527042368772716 0.2713538772849873 C 3.2474049389464223 0.2744371051720269 3.2417202375296927 0.27588236824407675 3.2360355361129636 0.27588236824407675 C 3.2255332911227352 0.27588236824407675 3.215320098746916 0.27087212292763735 3.208864590358427 0.2619114918809285 L 3.160207400266083 0.2878298763063552 C 3.163290628153123 0.2985248230395239 3.1589548389369733 0.31027962935886244 3.1489343483040946 0.3162533833900017 C 3.146429225645875 0.3177949973335215 3.143731401244715 0.31875850604822137 3.1409372259720856 0.3192402604055713 L 3.138432103313866 0.3639470647676457 C 3.143056945144425 0.36558502958263545 3.1472000326176346 0.3688609592126151 3.1499942078902645 0.37338945017170444 C 3.1562570145358135 0.3838916951619331 3.152884734034364 0.39747716803920147 3.142478839915605 0.40373997468475065 C 3.138913857671216 0.4058596938570904 3.1349634719409463 0.4069195534432603 3.131109437082147 0.4069195534432603 C 3.1235940691074875 0.4069195534432603 3.1162714028757685 0.40306551858446077 3.112128315402559 0.39622460671009163 C 3.1092377892584593 0.39140706313659224 3.1083706314152293 0.3858187125913329 3.1093341401299295 0.38071211640342356 L 3.0720463528710438 0.361538292980896 C 3.067132458426075 0.36703029265468523 3.0600988448087656 0.3701135205417249 3.0529688803199866 0.3701135205417249 C 3.048825792846777 0.3701135205417249 3.0445863545020977 0.3690536609555549 3.040732319643298 0.36693394178321526 C 3.0283994080951393 0.36009302990884606 3.0238709171360503 0.3446768904736481 3.030711829010419 0.33234397892548967 C 3.0341804603833387 0.3259848214084704 3.040057863543008 0.32174538306379097 3.0466097228029674 0.32001106737733115 L 3.0468024245459073 0.27125752641351725 C 3.0442009510162173 0.26990861421293744 3.041888530100938 0.2678852459120677 3.040250565285948 0.265187421510908 C 3.0356257234553885 0.25757570266477897 3.0381308461136083 0.24755521203190017 3.0457425649597374 0.24302672107281076 C 3.048344038489427 0.24148510712929094 3.0512345646335266 0.24071430015753104 3.0540287399061565 0.24071430015753104 C 3.0595207395799457 0.24071430015753104 3.064820037510795 0.2435084754301607 3.0679032653978346 0.24851872074660014 C 3.072528107228394 0.2561304395927292 3.070022984570174 0.26615093022560793 3.0624112657240454 0.27067942118469734 C 3.0614477570093452 0.2712575264135173 3.0603878974231753 0.27173928077086723 3.059328037837006 0.2721246842567472 L 3.0592316869655356 0.31991471650586123 C 3.0613514061378755 0.32039647086321116 3.063471125310215 0.32126362870644104 3.065494493611085 0.3223234882926109 C 3.0757076859869037 0.3280081897093402 3.080525229560403 0.33966664515720874 3.0780201069021835 0.35045794276184733 L 3.1152115432895986 0.36963176618437493 C 3.1165604554901787 0.3682828539837951 3.1181020694336983 0.36703029265468523 3.1198363851201583 0.36597043306851534 C 3.121859753421028 0.36471787173940545 3.1239794725933674 0.3639470647676456 3.1261955426371775 0.36336895953882575 L 3.128700665295397 0.3186621551767514 C 3.123112314750138 0.3168314886188216 3.1180057185622285 0.31307380463149204 3.1148261398037187 0.3075818049577027 C 3.1077925261864094 0.29563429689542425 3.1116465610452093 0.28031450833169613 3.1235940691074875 0.27318454384291707 C 3.1276408057092273 0.2707757720561674 3.131976594925377 0.2697159124699975 3.1363123841415264 0.2697159124699975 C 3.1428642434014855 0.2697159124699975 3.1494161026614447 0.27231738599968713 3.154137295363474 0.27713492957318653 L 3.203757994170518 0.25063843991893986 C 3.202312731098468 0.2448573876307406 3.202505432841408 0.23897998447107127 3.2040470467849276 0.23339163392581203 L 3.164157785996353 0.2161448279326842 C 3.1566424180216934 0.22761058163761272 3.1436350503732453 0.23522230048374182 3.128893367038337 0.23522230048374182 C 3.1055764561426 0.23522230048374182 3.0865953344630124 0.21633752967562414 3.0865953344630124 0.19292426790841713 C 3.0865953344630124 0.16960735701268 3.10548010527113 0.1506262353330924 3.128893367038337 0.1506262353330924 C 3.143249646887365 0.1506262353330924 3.1559679619214034 0.1578525506933415 3.1635796807675325 0.16874019916945016 L 3.2034689415561077 0.15033718271868243 C 3.200674766283478 0.13665535896994416 3.206648520314617 0.12220272824944597 3.2193668353486555 0.1147837111462569 C 3.224666133279505 0.1117004832592173 3.2303508346962344 0.11025522018716746 3.2360355361129636 0.11025522018716746 C 3.247308588074952 0.11025522018716746 3.258388938294001 0.11603627247536674 3.26465174493955 0.12634581572265544 L 3.296736585139056 0.11276034284538716 C 3.2964475325246463 0.1114114306448073 3.296351181653176 0.11006251844422746 3.296351181653176 0.10871360624364768 C 3.296158479910236 0.09715150166724902 3.305600865314295 0.0878054671346602 3.3171629698906937 0.0878054671346602 M 3.42324527937915 0.400656746797711 L 3.430182542124989 0.400656746797711 L 3.50581797622893 0.31259205027414205 C 3.5036019061851205 0.31027962935886233 3.5004223274266106 0.30883436628681254 3.496953696053691 0.30883436628681254 L 3.4784543287314533 0.30883436628681254 L 3.4108160169595214 0.38755302827779264 L 3.4108160169595214 0.3882274843780826 C 3.410912367830992 0.39506839625245177 3.4164043675047813 0.400656746797711 3.42324527937915 0.400656746797711 M 3.410912367830992 0.3718478362281846 L 3.4650615575971253 0.30883436628681254 L 3.452728646048967 0.30883436628681254 L 3.410912367830992 0.35749155637915636 L 3.410912367830992 0.3718478362281846 M 3.410912367830992 0.3259848214084704 L 3.4256540511658997 0.30883436628681254 L 3.42324527937915 0.30883436628681254 C 3.4164043675047813 0.30883436628681254 3.410912367830992 0.3143263659606018 3.410912367830992 0.321167277834971 L 3.410912367830992 0.3259848214084704 M 3.457160786136586 0.400656746797711 L 3.4713243642426743 0.400656746797711 L 3.5093829584733194 0.3564316967929866 L 3.5093829584733194 0.33995569777161866 L 3.457160786136586 0.400656746797711 M 3.4805740479037928 0.400656746797711 L 3.497050046925161 0.400656746797711 C 3.50389095879953 0.400656746797711 3.5093829584733194 0.39516474712392174 3.5093829584733194 0.3883238352495526 L 3.5093829584733194 0.36722299439762524 L 3.4805740479037928 0.400656746797711 M 3.3171629698906937 0.07817037998766141 L 3.3171629698906937 0.07817037998766141 C 3.3010723743552055 0.07817037998766141 3.2877759540923472 0.09069599327875984 3.286619743634707 0.10649753619983787 L 3.2676386219551192 0.11459100940331687 C 3.2595451487516405 0.10582308009954797 3.2479830441752418 0.10062013304016862 3.2359391852414934 0.10062013304016862 C 3.2284238172668345 0.10062013304016862 3.2209084492921756 0.10264350134103836 3.2143565900322164 0.1064011853283679 C 3.200674766283478 0.1143019567889069 3.192677643951469 0.12894728925234508 3.192966696565879 0.14436342868754315 L 3.1659884525542825 0.15688904197864154 C 3.1562570145358135 0.14677220047429282 3.1427678925300153 0.14099114818609354 3.128604314423927 0.14099114818609354 C 3.0999881055973404 0.14099114818609354 3.0766711947016034 0.1643080590818306 3.0766711947016034 0.19292426790841705 C 3.0766711947016034 0.2215404767350035 3.0999881055973404 0.2448573876307406 3.128604314423927 0.2448573876307406 C 3.143345997758835 0.2448573876307406 3.1571241723790435 0.23869093185666135 3.1669519612689823 0.22799598512349267 L 3.193063047437349 0.23926903708548125 C 3.192870345694409 0.24129240538635105 3.192870345694409 0.24331577368722074 3.193063047437349 0.24543549285956046 L 3.1550044532067036 0.26557282499678797 C 3.1494161026614442 0.2620078427523984 3.142864243401485 0.25998447445152867 3.136119682398586 0.25998447445152867 C 3.1299532266245067 0.25998447445152867 3.1237867708504274 0.26162243926651846 3.118487472919578 0.26480201802502806 C 3.110490350587569 0.2695232107270575 3.1049020000423098 0.27713492957318653 3.1025895791270304 0.28609556061989544 C 3.1002771582117505 0.2950561916666043 3.10162607041233 0.3044022261991931 3.1063472631143596 0.31239934853120216 C 3.1093341401299295 0.3174095938476415 3.113573578474609 0.321649032192321 3.1185838237910484 0.3245395583364207 L 3.1168495081045884 0.35643169679298664 C 3.1161750520042983 0.3568171002788666 3.1155005959040087 0.35720250376474655 3.1148261398037187 0.35758790725062645 C 3.1145370871893086 0.35778060899356645 3.114248034574899 0.3578769598650365 3.114055332831959 0.35806966160797643 L 3.088329650149472 0.34477324134511816 C 3.088426001020942 0.3320549263110797 3.081585089146573 0.3200110673773312 3.070215686313114 0.313748260731782 C 3.069830282827234 0.3135555589888421 3.0694448793413542 0.3132665063744321 3.0689631249840046 0.3130738046314921 L 3.0690594758554743 0.27780938567347646 C 3.0800434752030528 0.27010131595587744 3.0833194048330324 0.2550705800065593 3.0763821420871933 0.24341212455869082 C 3.071757300256634 0.2357040548410918 3.063278423567275 0.23088651126759235 3.054221441649096 0.23088651126759235 C 3.049500248947067 0.23088651126759235 3.0449717579879776 0.23213907259670225 3.0409250213862378 0.23454784438345194 C 3.0350476182265687 0.2381128266278415 3.0308081798818893 0.2437011771731008 3.0291702150668995 0.2504457381759999 C 3.0275322502519098 0.2570939483074291 3.0285921098380792 0.26403121105326827 3.0320607412109988 0.27000496508440747 C 3.0335060042830486 0.2723173859996872 3.0352403199695086 0.27443710517202696 3.0372636882703783 0.27617142085848667 L 3.037167337398908 0.3132665063744321 C 3.0310008816248293 0.3164460851329417 3.0258942854369195 0.32135997957791107 3.022425654064 0.3275264353519903 C 3.0130796195314113 0.34448418873070824 3.0192460753054906 0.3658740821970454 3.0362038286842084 0.3752201167296343 C 3.041406775743588 0.3781106428737339 3.0471878280317872 0.37955590594578376 3.0531615820629265 0.37955590594578376 C 3.0605805991661152 0.37955590594578376 3.0678069145263644 0.3772434850305041 3.073684317686034 0.3729076958143546 L 3.0995063512399907 0.3862041160772129 C 3.0997954038544004 0.39140706313659224 3.1012406669264503 0.39651365932450167 3.10403484219908 0.401042150283591 C 3.1097195436158094 0.4104845356876499 3.120125437734568 0.4164582897187892 3.1313021388250863 0.4164582897187892 C 3.1370831911132857 0.4164582897187892 3.142671541658545 0.41491667577526925 3.1476817869749847 0.4119297987596997 C 3.154908102335234 0.40759400954355024 3.160111049394613 0.4006567467977112 3.1621344176954826 0.3923705718512921 C 3.164157785996353 0.38418074777634315 3.162905224667243 0.37560552021551424 3.1585694354510934 0.36837920485526515 C 3.1560643127928736 0.3642361173820557 3.152692032291424 0.3607674860091361 3.1487416465611546 0.3581660124794464 L 3.150475962247614 0.32637022489435047 C 3.151728523576724 0.3257921196655305 3.152981084905834 0.3252140144367106 3.1541372953634736 0.3245395583364207 C 3.1653139964539925 0.31789134820499154 3.1716731539710117 0.30565478752830305 3.171095048742192 0.29312917423720464 L 3.2069375729290273 0.27405170168614695 C 3.214838344389566 0.2813743679178661 3.225244238508325 0.28551745539107554 3.2362282378559035 0.28551745539107554 C 3.2437436058305624 0.28551745539107554 3.2512589738052218 0.28349408709020574 3.257810833065181 0.27973640310287623 C 3.2783335686882884 0.2677888950405978 3.285367182305597 0.24148510712929105 3.273419674243319 0.2209623715061836 C 3.2657116045257197 0.20776230211479524 3.2514516755481617 0.19947612716837626 3.2361318869844333 0.19947612716837626 C 3.2286165190097744 0.19947612716837626 3.2211011510351155 0.20149949546924603 3.2145492917751564 0.20525717945657554 C 3.2119478182454664 0.20679879340009535 3.209442695587247 0.20853310908655512 3.207226625543437 0.21055647738742486 L 3.1803447324033103 0.19899437281102633 C 3.1806337850177204 0.19697100451015662 3.1807301358891906 0.19494763620928685 3.1807301358891906 0.19282791703694713 C 3.1807301358891906 0.19032279437872743 3.1805374341462507 0.18781767172050776 3.1801520306603703 0.18540889993375806 L 3.205395958985507 0.1737504444858895 C 3.213393081317516 0.18194026856083848 3.224377080665095 0.18666146126286792 3.2361318869844333 0.18666146126286792 C 3.2436472549590927 0.18666146126286792 3.251066272062282 0.18463809296199815 3.257618131322241 0.18088040897466864 C 3.2703364463562794 0.17346139187147958 3.278237217816818 0.1602613224800912 3.2790080247885784 0.146001393502533 L 3.3029993917846054 0.13588455199818422 C 3.304830058342535 0.1368480607128841 3.306660724900465 0.13761886768464401 3.3085877423298644 0.13819697291346394 L 3.3170666190192235 0.16845114655504018 C 3.305311812699885 0.1768336723729291 3.2980854973396356 0.19041914525019743 3.2980854973396356 0.20516082858510556 C 3.2980854973396356 0.22520180985086313 3.311285566731024 0.2424486158439909 3.3298812849247317 0.24813331726072024 L 3.331037495382372 0.26923415811264756 C 3.329784934053262 0.2698122633414675 3.328628723595622 0.2703903685702874 3.327472513137982 0.27106482467057735 C 3.312634478931604 0.27964005223140626 3.304541005728125 0.29601970038130415 3.3062753214145846 0.31259205027414216 L 3.2807423404750375 0.32675562838023037 C 3.2691802358986393 0.3147117694464819 3.253089640363151 0.30777450670064277 3.2362282378559035 0.30777450670064277 C 3.2021200293555276 0.30777450670064277 3.174370978372171 0.3355235576839993 3.174370978372171 0.36963176618437493 C 3.174370978372171 0.40373997468475065 3.2021200293555276 0.4314890256681072 3.2362282378559035 0.4314890256681072 C 3.238444307899713 0.4314890256681072 3.240756728814993 0.43139267479663723 3.2430691497302724 0.4311036221822273 L 3.2513553246766915 0.45249351564856466 C 3.2490429037614117 0.45644390137883417 3.247790342432302 0.4608760414664537 3.247790342432302 0.46559723416848303 C 3.247790342432302 0.4724381460428522 3.250391815961992 0.47899000530281144 3.2553057104069607 0.48380754887631083 C 3.2601232539804603 0.4887214433212802 3.2665787623689493 0.4914192677224398 3.2735160251147883 0.4914192677224398 L 3.2735160251147883 0.4914192677224398 L 3.2736123759862585 0.4914192677224398 C 3.287775954092347 0.4914192677224398 3.2993380586687455 0.4798571631460412 3.2993380586687455 0.46569358503995295 C 3.2993380586687455 0.4589490240370538 3.2967365851390555 0.45249351564856455 3.292015392437026 0.44767597207506515 C 3.288932164549987 0.4444963933165555 3.2851744805626573 0.4421839724012759 3.2810313930894477 0.441027761943636 L 3.2727452181430285 0.41963786847729867 C 3.2885467610641066 0.4080757639009001 3.2980854973396356 0.3896727474501324 3.2980854973396356 0.36972811705584496 C 3.2980854973396356 0.36462152086793553 3.2974110412393456 0.35951492468002616 3.296254830781706 0.35460103023505685 L 3.3210170047494927 0.34082285561484854 C 3.3288214253385617 0.3475674166177477 3.3388419159714404 0.3513251006050772 3.349247810090199 0.3513251006050772 C 3.356763178064858 0.3513251006050772 3.3641821951680475 0.34930173230420747 3.370734054428006 0.34554404831687796 C 3.3768041593306157 0.3420754169439584 3.381814404647055 0.33716152249898906 3.3854757377629143 0.3314768210822597 L 3.3854757377629143 0.33947394341426873 L 3.3854757377629143 0.3440987852448281 L 3.3854757377629143 0.35373387239182685 L 3.3854757377629143 0.35835871422238635 L 3.3854757377629143 0.36799380136938514 L 3.3854757377629143 0.3726186431999446 L 3.3854757377629143 0.3811938707607735 L 3.3699632474562464 0.38899829134984254 C 3.3638931425536374 0.3840843969048731 3.3562814237075083 0.3813865725037135 3.348380652246969 0.3813865725037135 C 3.34231054734436 0.3813865725037135 3.336240442441751 0.3830245373187033 3.330941144510901 0.3861077652057429 C 3.3146578472324735 0.3957428523527417 3.309262198430154 0.416843693204669 3.318800934705683 0.43312699048309705 C 3.3221732152071324 0.4389080427712963 3.3270871096521017 0.4433401828589158 3.332868161940301 0.44632705987448534 L 3.332482758454421 0.4841929523621905 C 3.332386407582951 0.4841929523621905 3.332386407582951 0.4842893032336606 3.3322900567114813 0.4842893032336606 C 3.3249673904797623 0.48852874157834003 3.3196680925489126 0.4953696534527091 3.317452022505103 0.5035594775276582 C 3.3152359524612933 0.5117493016026071 3.316392162918933 0.520324529163436 3.320631601263613 0.5276471953951551 C 3.326316302680342 0.537474984285094 3.3368185476705703 0.5435450891877032 3.348187950504029 0.5435450891877032 C 3.3535835993063485 0.5435450891877032 3.358979248108668 0.5420998261156533 3.363700440810697 0.5394983525859636 L 3.396652438853433 0.5589612286229013 C 3.397230544082253 0.5618517547670009 3.3981940527969527 0.5647422809111006 3.399735666740473 0.5673437544407902 C 3.404456859442502 0.5755335785157392 3.413321139617741 0.5806401747036486 3.4227635250218 0.5806401747036486 C 3.4273883668523593 0.5806401747036486 3.4320132086829185 0.5793876133745387 3.4360599452846583 0.577075192459259 C 3.442226401058737 0.5735102102148694 3.4465621902748866 0.5678255087981401 3.4483928568328164 0.5609845969237709 C 3.4502235233907466 0.5541436850494017 3.4492600146760464 0.5470137205606226 3.445791383303127 0.5408472647865434 C 3.4410701906010974 0.5326574407115944 3.4322059104258584 0.5275508445236851 3.4227635250218 0.5275508445236851 C 3.4186204375485905 0.5275508445236851 3.414477350075381 0.528514353238385 3.410719666088051 0.5304413706677847 L 3.3798873872176554 0.512231055959957 C 3.379983738089125 0.5065463545432278 3.3785384750170753 0.5010543548694384 3.3756479488729756 0.49604410955299916 C 3.372853773600346 0.49122656597949976 3.3689997387415467 0.48727618024923025 3.3642785460395173 0.4845783558480705 L 3.364663949525397 0.4460380072600754 C 3.365049353011277 0.4458453055171354 3.365434756497157 0.4455562529027255 3.365820159983037 0.4453635511597855 C 3.375647948872976 0.4395824988715862 3.381814404647055 0.42936930649576743 3.3825852116188146 0.41828895627671886 L 3.3952071757813833 0.41192979875969965 C 3.397712298439603 0.416650991461729 3.402240789398692 0.4201196228346486 3.407540087329542 0.4212758332922884 L 3.407540087329542 0.42994741172458734 L 3.4171751744765406 0.42994741172458734 L 3.42420878809385 0.42994741172458734 L 3.433843875240848 0.42994741172458734 L 3.438468717071408 0.42994741172458734 L 3.4481038042184067 0.42994741172458734 L 3.452728646048966 0.42994741172458734 L 3.4623637331959647 0.42994741172458734 L 3.4669885750265244 0.42994741172458734 L 3.4726732764432535 0.42994741172458734 L 3.484909837119942 0.47715933874488137 C 3.484620784505532 0.4773520404878214 3.4842353810196522 0.47764109310223135 3.483946328405242 0.4778337948451713 L 3.4669885750265244 0.46925856728434245 C 3.4669885750265244 0.4690658655414024 3.4669885750265244 0.4688731637984625 3.4669885750265244 0.4686804620555225 C 3.4669885750265244 0.44854312991829504 3.450705277748096 0.4321634817683971 3.4306642964823384 0.4321634817683971 L 3.4305679456108686 0.4321634817683971 C 3.4105269643451113 0.4321634817683971 3.3941473161952134 0.448446779046825 3.3941473161952134 0.46848776031258255 C 3.3941473161952134 0.4782191983310513 3.3979050001825426 0.4873725311207002 3.404745912056912 0.4943097938665393 C 3.411586823931281 0.5012470566123784 3.42074015672093 0.5050047405997079 3.430471594739399 0.5050047405997079 L 3.4305679456108686 0.5050047405997079 C 3.4385650679428776 0.5050047405997079 3.4462731376604765 0.5024032670700183 3.452632295177496 0.49758572349651886 L 3.4701681537850337 0.5064500036717577 C 3.470264504656504 0.5124237577028972 3.4719024694714937 0.5183975117340363 3.4749856973585334 0.5236004587934155 C 3.4782616269885125 0.529092458467205 3.482886468819072 0.5335245985548243 3.4883784684928614 0.5365114755703939 L 3.4889565737216817 0.5852650165342079 C 3.478839732217333 0.5910460688224072 3.472191522085904 0.6019337172985157 3.472191522085904 0.6138812253607944 C 3.472191522085904 0.6226491546645633 3.475563802587353 0.6309353296109823 3.481826609232902 0.6371981362565314 C 3.4879930650069815 0.6434609429020807 3.4962792399534006 0.6469295742750003 3.5051435201286396 0.6469295742750003 L 3.5052398710001094 0.6469295742750003 C 3.5233538348364672 0.6469295742750003 3.538191869042845 0.6321878909400922 3.538191869042845 0.6140739271037344 C 3.538191869042845 0.6017410155555759 3.5313509571684762 0.5905643144650573 3.5207523613067773 0.584975963919798 L 3.520174256077958 0.537474984285094 C 3.5211377647926576 0.536993229927744 3.5221012735073574 0.5365114755703941 3.5230647822220575 0.5359333703415742 C 3.5302910975823063 0.5315975811254248 3.535783097256096 0.5248530201225255 3.5384809216572553 0.5168558977905165 C 3.5402152373437152 0.5114602489881973 3.540696991701065 0.505871898442938 3.5398298338578353 0.5003798987691486 L 3.558425552051543 0.4875652328636403 C 3.5610270255812324 0.48843239070687006 3.563821200853862 0.48881779419275007 3.5665190252550216 0.48881779419275007 L 3.5667117269979616 0.48881779419275007 C 3.58164611207581 0.48881779419275007 3.5938826727524984 0.4766775843875315 3.593979023623968 0.4617431993096834 C 3.593979023623968 0.45355337523473443 3.590414041379579 0.4459416563886054 3.5843439364769694 0.44083506020069607 L 3.5835731295052096 0.4179035527908389 C 3.584922041705789 0.417229096690549 3.5862709539063693 0.41645828971878907 3.587427164364009 0.41559113187555924 L 3.6168141801623555 0.4327415869972171 C 3.617970390619995 0.44545990203125546 3.628568986481694 0.4556730944070742 3.6416727050016124 0.4558657961500141 C 3.641769055873082 0.4558657961500141 3.641961757616022 0.4558657961500141 3.6420581084874923 0.4558657961500141 C 3.6558362831077003 0.4558657961500141 3.667205685941159 0.4446890950594955 3.667398387684099 0.4309109204392873 C 3.667494738555569 0.42416635943638814 3.6649896158973494 0.4177108510478989 3.66026842319532 0.4128933074743995 C 3.6555472304932906 0.4079794130294301 3.6491880729762713 0.40528158862827046 3.6424435119733722 0.4051852377568005 C 3.642347161101902 0.4051852377568005 3.642154459358962 0.4051852377568005 3.6420581084874923 0.4051852377568005 C 3.6394566349578024 0.4051852377568005 3.636951512299583 0.4055706412426804 3.6344463896413632 0.40634144821444035 L 3.6031323564136177 0.38793843176367265 C 3.6043849177427276 0.37406390627199443 3.597640356739828 0.36038208252325604 3.58530744519167 0.35305941629153703 C 3.58366948037668 0.3520959075768372 3.58203151556169 0.3512287497336073 3.5803935507467006 0.35055429363331736 L 3.5794300420320004 0.3244432074649506 C 3.5893541817934094 0.3183731025623413 3.5954242866960184 0.30777450670064266 3.5960023919248387 0.29640510386718405 L 3.625196705980245 0.28301233273285575 C 3.625678460337595 0.2833977362187357 3.6262565655664147 0.2836867888331457 3.6268346707952346 0.28407219231902564 C 3.6273164251525847 0.2843612449334356 3.6277981795099343 0.2846502975478456 3.628279933867285 0.2849393501622555 L 3.628279933867285 0.31712054123323147 C 3.618741197591756 0.3226125409070208 3.6125747418176766 0.3327293824113695 3.6123820400747366 0.3440987852448281 C 3.6122856892032664 0.35257766193418705 3.6154652679617763 0.36057478426619605 3.6213426711214454 0.3666448891688052 C 3.6272200742811145 0.37271499407141445 3.6351208457416537 0.37618362544433404 3.643599722431013 0.376279976315804 C 3.6437924241739528 0.376279976315804 3.6439851259168927 0.376279976315804 3.6440814767883625 0.376279976315804 C 3.6524640026062514 0.376279976315804 3.6603647740667906 0.37300404668582443 3.6663385280979295 0.36712664352615515 C 3.6723122821290692 0.36124924036648587 3.6756845626305186 0.3533484689059469 3.6757809135019883 0.344965943088058 C 3.6759736152449287 0.3333074876401894 3.6697108085993793 0.3227088917784907 3.6598830197094405 0.31702419036176144 L 3.6598830197094405 0.28359043796167566 C 3.6640261071826496 0.280988964431986 3.6675910894270394 0.2773276313161265 3.6701925629567294 0.273088192971447 C 3.674528352172879 0.2658618776111979 3.6758772643734585 0.257286650050369 3.6737575452011186 0.24909682597542 C 3.671734176900249 0.24090700190047104 3.66653122984087 0.23396973915463193 3.6593049144806207 0.22953759906701243 C 3.6543910200356513 0.22655072205144278 3.648706318618922 0.22500910810792302 3.6429252663307228 0.22500910810792302 C 3.6318449161116737 0.22500910810792302 3.621439021992915 0.2308865112675923 3.615657969704716 0.24042524754312106 C 3.6131528470464964 0.24466468588780055 3.6116112331029764 0.24938587858983002 3.6112258296170965 0.25429977303479934 L 3.5824169190475703 0.2674998424261877 C 3.5813570594614004 0.2666326845829578 3.5802971998752304 0.2658618776111979 3.5791409894175907 0.265187421510908 L 3.5810680068469902 0.23888363359960124 C 3.589643234407819 0.23657121268432157 3.5974476549968886 0.23185001998229215 3.603614110770968 0.225105458979393 C 3.6117075839744466 0.21633752967562406 3.616139724062066 0.20487177597069553 3.616139724062066 0.192924267908417 C 3.616139724062066 0.1666204799971103 3.594749830595729 0.14523058653077298 3.568446042684422 0.14523058653077298 C 3.558329201180073 0.14523058653077298 3.5486941140330743 0.1484101652892826 3.5406969917010653 0.15419121757748186 L 3.5154530633759284 0.13655900809847404 C 3.5163202212191584 0.12933269273822495 3.514778607275639 0.12191367563503591 3.511020923288309 0.11545816724654667 C 3.5049508183857 0.104955922256318 3.4935814155522413 0.09840406299635883 3.481344854875553 0.09840406299635883 C 3.4753711008444137 0.09840406299635883 3.4693973468132744 0.1000420278113486 3.4641943997538953 0.10302890482691826 C 3.456293628293356 0.10765374665747768 3.450608926876627 0.11497641288919677 3.448296505961347 0.12384069306443565 C 3.4459840850460677 0.13270497323967453 3.4471402955037074 0.14195465690079342 3.4517651373342666 0.14985542836133242 C 3.457835242236876 0.1603576733515611 3.4692046450703344 0.16690953261152025 3.481441205747023 0.16690953261152025 C 3.487029556292282 0.16690953261152025 3.4926179068375416 0.16546426953947044 3.497628152153981 0.1628627960097808 L 3.522583027864708 0.1802059528743786 C 3.5214268174070678 0.1843490403475881 3.520848712178248 0.18849212782079758 3.520848712178248 0.19282791703694704 C 3.520848712178248 0.21200174045947462 3.5322181150117067 0.22895949383819247 3.5493685701333644 0.23647486181285154 L 3.5474415527039644 0.2627786497241583 C 3.5459962896319146 0.2633567549529783 3.544647377431335 0.26412756192473813 3.5432984652307553 0.26489836889649804 C 3.5353013428987463 0.2696195615985274 3.529712992353487 0.2772312804446565 3.527400571438207 0.28619191149136536 C 3.526340711852037 0.2903349989645749 3.5260516592376274 0.2945744373092543 3.5265334135949775 0.29871752478246383 L 3.526340711852037 0.29871752478246383 C 3.5249917996514575 0.29515254253807427 3.5224866769932377 0.29206931465103464 3.519403449106198 0.28994959547869487 L 3.519403449106198 0.28937149024987496 L 3.519403449106198 0.2797364031028762 L 3.5097683619591993 0.2797364031028762 L 3.50514352012864 0.2797364031028762 L 3.4955084329816413 0.2797364031028762 L 3.4906908894081417 0.2797364031028762 L 3.481055802261143 0.2797364031028762 L 3.4770090656594035 0.2797364031028762 L 3.4768163639164635 0.2748225086579067 C 3.4778762235026335 0.27434075430055677 3.478936083088803 0.2737626490717368 3.4798995918035027 0.2731845438429169 C 3.5015785378842503 0.2606589305518185 3.5089012041159693 0.232813528696992 3.4963755908248713 0.21113458261624468 C 3.488282117621392 0.1971637062530964 3.473251381672074 0.1885884786922675 3.457160786136586 0.1885884786922675 C 3.455715523064536 0.1885884786922675 3.4542702599924864 0.18868482956373747 3.4527286460489663 0.18878118043520747 L 3.4225708232788605 0.13058525406733473 C 3.4249795950656097 0.12673121920853522 3.4266175598806 0.12239542999238576 3.4272920159808895 0.11786693903329634 C 3.4282555246955897 0.1107369745445172 3.4268102616235394 0.10331795744132816 3.42305257763621 0.09715150166724891 C 3.417367876219481 0.08761276539172011 3.4068656312292522 0.08173536223205086 3.3957852810102036 0.08173536223205086 C 3.3900042287220042 0.08173536223205086 3.3844158781767453 0.08327697617557066 3.3794056328603057 0.08626385319114027 C 3.375166194515626 0.08886532672082995 3.3716012122712367 0.09233395809374952 3.368999738741547 0.09647704556695899 L 3.34471931913111 0.0955135368522591 C 3.339709073814671 0.08520399360497054 3.329206828824442 0.07817037998766141 3.3171629698906937 0.07817037998766141 L 3.3171629698906937 0.07817037998766141 L 3.3171629698906937 0.07817037998766141 L 3.3171629698906937 0.07817037998766141 Z M 3.3391309685858506 0.13000714883851494 C 3.3399981264290806 0.12913999099528503 3.3408652842723106 0.12817648228058515 3.3415397403726006 0.1271166226944153 L 3.367650826540967 0.12817648228058515 C 3.367939879155377 0.12875458750940508 3.3682289317697873 0.12923634186675503 3.368517984384197 0.12981444709557494 C 3.3740099840579862 0.13887142901375382 3.3837414220764552 0.14465248130195307 3.394243667066684 0.14513423565930303 L 3.42411243722238 0.20265570592688584 C 3.418427735805651 0.20862945995802507 3.4144773500753813 0.21604847706121413 3.412743034388922 0.2242383011361631 C 3.4103342626021718 0.23531865135521174 3.4121649291601015 0.24678440506014027 3.417849630576831 0.2566121939500791 C 3.42391973547944 0.2670180880688378 3.433747524369379 0.2745334560434969 3.4451169272028377 0.27761668393053646 L 3.4452132780743074 0.27964005223140626 L 3.4380833135855284 0.27964005223140626 L 3.433458471754969 0.27964005223140626 L 3.42382338460797 0.27964005223140626 L 3.416789770990661 0.27964005223140626 L 3.4071546838436624 0.27964005223140626 L 3.4071546838436624 0.2870590693345953 C 3.400988228069583 0.2884079815351751 3.395977982753144 0.29284012162279455 3.393761912709334 0.29862117391099385 L 3.3905823339508245 0.29862117391099385 C 3.3896188252361243 0.2943817355663144 3.3880772112926048 0.2903349989645749 3.3857647903773254 0.28648096410577534 C 3.3804654924464757 0.2773276313161265 3.3720829666285868 0.27058307031322737 3.362255177738648 0.2673071406832478 L 3.3610989672810083 0.2459172472169105 C 3.376996861073556 0.23878728272813138 3.387595456935255 0.22288938893558338 3.387595456935255 0.20487177597069556 C 3.387595456935255 0.18165121594642847 3.369963247456247 0.16257374339537084 3.3474171435322697 0.16016497160862114 L 3.3391309685858506 0.13000714883851494 L 3.3391309685858506 0.13000714883851494 Z M 3.535108641155806 0.3250213126937705 L 3.535108641155806 0.3175059447191114 C 3.538191869042846 0.321070926963501 3.5419495530301752 0.3239614531076006 3.546092640503385 0.3259848214084704 L 3.5470561492180845 0.35296306542006706 C 3.5422386056445854 0.3558535915641666 3.538095518171376 0.35980397729443614 3.535012290284336 0.36452516999646556 L 3.535012290284336 0.3582623633509163 L 3.535012290284336 0.3536375215203569 L 3.535012290284336 0.3440024343733581 L 3.535012290284336 0.33937759254279876 L 3.535012290284336 0.3297425053957999 L 3.535012290284336 0.3250213126937705 L 3.535108641155806 0.3250213126937705 Z M 3.482982819690543 0.31846945343381133 L 3.488089415878452 0.31846945343381133 L 3.4257504020373695 0.3910216596507122 L 3.42324527937915 0.3910216596507122 C 3.4224744724073903 0.3910216596507122 3.4218000163071003 0.3907326070363023 3.42131826194975 0.3902508526789524 L 3.482982819690543 0.31846945343381133 L 3.482982819690543 0.31846945343381133 Z M 3.5257626066232173 0.41077358830205973 L 3.535108641155806 0.41077358830205973 L 3.535108641155806 0.4049925360138605 C 3.538095518171376 0.4096173778444199 3.5422386056445854 0.4135677635746894 3.5470561492180845 0.416458289718789 C 3.5485014122901344 0.4173254475620189 3.5499466753621842 0.41809625453377885 3.5514882893057043 0.41867435976259876 L 3.552162745405994 0.4381372357995363 C 3.544358324816925 0.4429547793730357 3.539251728629016 0.4516263578053346 3.539251728629016 0.4611650940808635 C 3.539251728629016 0.4613577958238035 3.539251728629016 0.4615504975667434 3.539251728629016 0.4617431993096834 L 3.520945063049718 0.4742688126007818 C 3.5199815543350184 0.47378705824343187 3.519018045620318 0.47340165475755197 3.5180545369056184 0.47291990040020204 L 3.50678148494363 0.42956200823870744 L 3.5095756602162593 0.42956200823870744 L 3.519210747363258 0.42956200823870744 L 3.519210747363258 0.41992692109170865 L 3.519210747363258 0.4180962545337789 C 3.522101273507358 0.41645828971878907 3.5244136944226376 0.41385681618909936 3.5257626066232173 0.41077358830205973 L 3.5257626066232173 0.41077358830205973 Z" fill="#ffffff" transform="matrix(1,0,0,1,0,0)" fill-rule="nonzero"></path></g><g clip-path="url(#SvgjsClipPath10016ad13d1a-d0c5-4a03-a156-c1a70cbf16e9)"><path d=" M 3.5093829584733194 0.33995569777161866 L 3.457160786136586 0.400656746797711 L 3.4713243642426743 0.400656746797711 L 3.5093829584733194 0.3564316967929866 Z" fill="#0f339e" transform="matrix(1,0,0,1,0,0)" fill-rule="nonzero"></path></g><g clip-path="url(#SvgjsClipPath10016ad13d1a-d0c5-4a03-a156-c1a70cbf16e9)"><path d=" M 3.4526322951774966 0.30883436628681254 L 3.410912367830992 0.35749155637915636 L 3.410912367830992 0.3718478362281846 L 3.465061557597125 0.30883436628681254 Z" fill="#0f339e" transform="matrix(1,0,0,1,0,0)" fill-rule="nonzero"></path></g><g clip-path="url(#SvgjsClipPath10016ad13d1a-d0c5-4a03-a156-c1a70cbf16e9)"><path d=" M 3.5093829584733194 0.3883238352495526 L 3.5093829584733194 0.36722299439762524 L 3.4805740479037928 0.400753097669181 L 3.497050046925161 0.400753097669181 C 3.50379460792806 0.400656746797711 3.5093829584733194 0.39506839625245177 3.5093829584733194 0.3883238352495526 Z" fill="#0f339e" transform="matrix(1,0,0,1,0,0)" fill-rule="nonzero"></path></g><g clip-path="url(#SvgjsClipPath10016ad13d1a-d0c5-4a03-a156-c1a70cbf16e9)"><path d=" M 3.497050046925161 0.30883436628681254 L 3.4785506796029235 0.30883436628681254 L 3.4109123678309916 0.38755302827779264 L 3.4109123678309916 0.3882274843780826 C 3.4109123678309916 0.39506839625245177 3.4164043675047813 0.400560395926241 3.42324527937915 0.400560395926241 L 3.430182542124989 0.400560395926241 L 3.5058179762289297 0.312495699402672 C 3.50360190618512 0.31027962935886233 3.5005186782980804 0.30883436628681254 3.497050046925161 0.30883436628681254 Z" fill="#0f339e" transform="matrix(1,0,0,1,0,0)" fill-rule="nonzero"></path></g><g clip-path="url(#SvgjsClipPath10016ad13d1a-d0c5-4a03-a156-c1a70cbf16e9)"><path d=" M 3.42324527937915 0.30883436628681254 C 3.4164043675047813 0.30883436628681254 3.410912367830992 0.3143263659606018 3.410912367830992 0.321167277834971 L 3.410912367830992 0.3259848214084704 L 3.4256540511658997 0.30883436628681254 L 3.42324527937915 0.30883436628681254 Z" fill="#0f339e" transform="matrix(1,0,0,1,0,0)" fill-rule="nonzero"></path></g></g></g><defs><clipPath id="SvgjsClipPath1003"><path d=" M 2.753546142578125 -0.025844285106095266 h 0.9487312605781104 v 1.1106885702121905 h -0.9487312605781104 Z"></path></clipPath><clipPath id="SvgjsClipPath10016ad13d1a-d0c5-4a03-a156-c1a70cbf16e9"><path d=" M 2.753546142578125 -0.025844285106095266 L 3.702277403156235 -0.025844285106095266 L 3.702277403156235 1.084844285106095 L 2.753546142578125 1.084844285106095 Z"></path></clipPath></defs></svg>