<?xml version="1.0" encoding="UTF-8"?> <svg xmlns="http://www.w3.org/2000/svg" width="298" height="65" viewBox="0 0 298 65" fill="none"><g id="Property 2=default" clip-path="url(#clip0)"><g id="Frame" clip-path="url(#clip1)"><g id="Group"><path id="Vector" d="M0.266602 16.966H16.1523L20.7237 21.5374L0.266602 41.9946V64.2803L31.9237 32.6231L63.4666 64.2803V41.9946L43.0095 21.5374L47.5809 16.966H63.4666V0.280273H0.266602V16.966ZM32.7237 31.9374L40.7237 23.9374L60.4952 59.7088L32.7237 31.9374ZM62.3237 42.4517V60.7374L41.4095 23.1374L42.2095 22.3374L62.3237 42.4517ZM62.3237 15.8231H19.8095L62.3237 1.6517V15.8231ZM32.1523 1.42313H59.4666L18.438 15.1374L32.1523 1.42313ZM25.2952 16.966L21.5237 20.7374L17.7523 16.966H25.2952Z" fill="black"></path><path id="Vector_2" d="M98.2096 31.9375C101.41 30.4518 103.352 28.0518 103.352 24.3946C103.352 18.6804 99.2382 15.9375 93.8668 15.9375H83.5811V18.6804H86.3239V46.2232H83.5811V48.9661H94.2096C96.0382 48.9661 97.9811 48.8518 99.5811 48.0518C102.781 46.6804 104.724 43.3661 104.724 39.9375C104.724 37.6518 103.924 35.4804 102.324 33.8804C101.067 32.7375 100.038 32.2804 98.2096 31.9375ZM89.6382 18.7946H92.6096C96.6096 18.7946 99.6953 20.2804 99.6953 24.6232C99.6953 28.5089 96.7239 30.7946 93.0668 30.7946H89.5239V18.7946H89.6382ZM93.2953 46.3375H89.5239V33.4232H93.1811C94.3239 33.4232 95.3525 33.4232 96.381 33.7661C99.3525 34.4518 101.067 36.8518 101.067 39.8232C101.181 44.6232 97.6382 46.3375 93.2953 46.3375Z" fill="black"></path><path id="Vector_3" d="M98.2096 31.9375C101.41 30.4518 103.352 28.0518 103.352 24.3946C103.352 18.6804 99.2382 15.9375 93.8668 15.9375H83.5811V18.6804H86.3239V46.2232H83.5811V48.9661H94.2096C96.0382 48.9661 97.9811 48.8518 99.5811 48.0518C102.781 46.6804 104.724 43.3661 104.724 39.9375C104.724 37.6518 103.924 35.4804 102.324 33.8804C101.067 32.7375 100.038 32.2804 98.2096 31.9375ZM89.6382 18.7946H92.6096C96.6096 18.7946 99.6953 20.2804 99.6953 24.6232C99.6953 28.5089 96.7239 30.7946 93.0668 30.7946H89.5239V18.7946H89.6382ZM93.2953 46.3375H89.5239V33.4232H93.1811C94.3239 33.4232 95.3525 33.4232 96.381 33.7661C99.3525 34.4518 101.067 36.8518 101.067 39.8232C101.181 44.6232 97.6382 46.3375 93.2953 46.3375Z" fill="black"></path><path id="Vector_4" d="M117.638 29.3086C111.924 29.3086 108.152 33.7657 108.152 39.3657C108.152 45.1943 112.267 49.4229 118.095 49.4229C121.295 49.4229 124.838 48.28 126.324 45.3086V42.9086H123.352C123.009 46.2229 121.067 47.0229 118.095 47.0229C113.638 47.0229 111.352 43.8229 111.238 39.5943H126.209C126.438 34.1086 123.809 29.3086 117.638 29.3086ZM111.467 37.5372C112.038 34.3372 114.095 31.5943 117.638 31.5943C121.067 31.5943 123.238 34.3372 123.581 37.5372H111.467Z" fill="black"></path><path id="Vector_5" d="M117.638 29.3086C111.924 29.3086 108.152 33.7657 108.152 39.3657C108.152 45.1943 112.267 49.4229 118.095 49.4229C121.295 49.4229 124.838 48.28 126.324 45.3086V42.9086H123.352C123.009 46.2229 121.067 47.0229 118.095 47.0229C113.638 47.0229 111.352 43.8229 111.238 39.5943H126.209C126.438 34.1086 123.809 29.3086 117.638 29.3086ZM111.467 37.5372C112.038 34.3372 114.095 31.5943 117.638 31.5943C121.067 31.5943 123.238 34.3372 123.581 37.5372H111.467Z" fill="black"></path><path id="Vector_6" d="M148.152 36.1657C148.152 32.0515 145.409 29.3086 141.295 29.3086C138.666 29.3086 136.838 30.3372 135.123 32.3943V29.7657H129.409V32.3943H132.038V46.4515H129.409V49.08H137.638V46.4515H135.123V38.3372C135.123 35.0229 136.723 31.9372 140.381 31.9372C143.809 31.9372 144.952 34.3372 144.952 37.4229V48.9657H150.781V46.3372H148.152V36.1657Z" fill="black"></path><path id="Vector_7" d="M148.152 36.1657C148.152 32.0515 145.409 29.3086 141.295 29.3086C138.666 29.3086 136.838 30.3372 135.123 32.3943V29.7657H129.409V32.3943H132.038V46.4515H129.409V49.08H137.638V46.4515H135.123V38.3372C135.123 35.0229 136.723 31.9372 140.381 31.9372C143.809 31.9372 144.952 34.3372 144.952 37.4229V48.9657H150.781V46.3372H148.152V36.1657Z" fill="black"></path><path id="Vector_8" d="M168.038 31.5943C166.324 29.88 164.152 29.3086 161.867 29.3086C156.038 29.3086 152.267 33.7657 152.267 39.3657C152.267 45.1943 156.495 49.4229 162.324 49.4229C165.524 49.4229 168.381 48.28 170.438 45.7657V42.2229H168.038C167.809 45.4229 165.409 46.68 162.552 46.68C158.438 46.68 155.581 43.2515 155.581 39.2515C155.581 35.3657 158.095 32.1657 162.209 32.1657C165.067 32.1657 167.809 33.9943 168.038 36.9657H170.438V29.7657H168.952L168.038 31.5943Z" fill="black"></path><path id="Vector_9" d="M168.038 31.5943C166.324 29.88 164.152 29.3086 161.867 29.3086C156.038 29.3086 152.267 33.7657 152.267 39.3657C152.267 45.1943 156.495 49.4229 162.324 49.4229C165.524 49.4229 168.381 48.28 170.438 45.7657V42.2229H168.038C167.809 45.4229 165.409 46.68 162.552 46.68C158.438 46.68 155.581 43.2515 155.581 39.2515C155.581 35.3657 158.095 32.1657 162.209 32.1657C165.067 32.1657 167.809 33.9943 168.038 36.9657H170.438V29.7657H168.952L168.038 31.5943Z" fill="black"></path><path id="Vector_10" d="M191.924 36.166C191.924 32.0518 189.295 29.3089 185.181 29.3089C182.438 29.3089 180.495 30.566 178.895 32.7375V16.0518H173.181V18.6803H175.809V46.4518H173.181V49.0803H181.524V46.4518H178.895V38.3375C178.895 35.0232 180.495 31.9375 184.266 31.9375C187.695 31.9375 188.838 34.3375 188.838 37.4232V48.966H194.552V46.3375H191.924V36.166Z" fill="black"></path><path id="Vector_11" d="M191.924 36.166C191.924 32.0518 189.295 29.3089 185.181 29.3089C182.438 29.3089 180.495 30.566 178.895 32.7375V16.0518H173.181V18.6803H175.809V46.4518H173.181V49.0803H181.524V46.4518H178.895V38.3375C178.895 35.0232 180.495 31.9375 184.266 31.9375C187.695 31.9375 188.838 34.3375 188.838 37.4232V48.966H194.552V46.3375H191.924V36.166Z" fill="black"></path><path id="Vector_12" d="M227.352 36.3943C227.352 32.28 225.409 29.3086 221.066 29.3086C218.095 29.3086 216.266 30.2229 214.552 32.7372C213.409 30.2229 211.695 29.3086 209.066 29.3086C206.438 29.3086 204.495 30.4515 202.895 32.3943V29.7657H197.295V32.3943H199.809V46.4515H197.295V49.08H205.295V46.4515H202.895V38.9086C202.895 35.5943 203.924 31.9372 207.809 31.9372C211.466 31.9372 211.924 34.7943 211.924 37.7657V49.08H217.409V46.4515H215.124V38.5657C215.124 35.3657 216.266 31.8229 220.038 31.8229C223.466 31.8229 224.152 34.7943 224.152 37.6515V48.9657H229.752V46.3372H227.238V36.3943H227.352Z" fill="black"></path><path id="Vector_13" d="M227.352 36.3943C227.352 32.28 225.409 29.3086 221.066 29.3086C218.095 29.3086 216.266 30.2229 214.552 32.7372C213.409 30.2229 211.695 29.3086 209.066 29.3086C206.438 29.3086 204.495 30.4515 202.895 32.3943V29.7657H197.295V32.3943H199.809V46.4515H197.295V49.08H205.295V46.4515H202.895V38.9086C202.895 35.5943 203.924 31.9372 207.809 31.9372C211.466 31.9372 211.924 34.7943 211.924 37.7657V49.08H217.409V46.4515H215.124V38.5657C215.124 35.3657 216.266 31.8229 220.038 31.8229C223.466 31.8229 224.152 34.7943 224.152 37.6515V48.9657H229.752V46.3372H227.238V36.3943H227.352Z" fill="black"></path><path id="Vector_14" d="M248.495 35.3657C248.495 30.9086 244.724 29.3086 240.838 29.3086C239.238 29.3086 237.638 29.6515 236.038 30.1086C235.695 30.2229 235.352 30.3372 235.009 30.3372C234.666 30.3372 234.209 30.3372 233.752 30.3372H233.638V34.5657H235.924C236.495 32.28 238.438 31.7086 240.495 31.7086C243.352 31.7086 245.409 33.1943 245.409 36.1657V39.0229C243.581 37.5372 242.209 36.6229 239.809 36.6229C236.038 36.6229 232.724 39.2515 232.724 43.1372C232.724 46.9086 235.695 49.4229 239.352 49.4229C241.752 49.4229 243.695 48.6229 245.409 46.9086V49.08H251.009V46.4515H248.495V35.3657ZM245.295 44.1657C244.152 45.9943 242.552 47.1372 240.266 47.1372C237.866 47.1372 235.581 45.5372 235.581 42.9086C235.581 40.28 237.866 38.7943 240.152 38.7943C242.552 38.7943 243.924 40.0515 245.295 41.88V44.1657Z" fill="black"></path><path id="Vector_15" d="M248.495 35.3657C248.495 30.9086 244.724 29.3086 240.838 29.3086C239.238 29.3086 237.638 29.6515 236.038 30.1086C235.695 30.2229 235.352 30.3372 235.009 30.3372C234.666 30.3372 234.209 30.3372 233.752 30.3372H233.638V34.5657H235.924C236.495 32.28 238.438 31.7086 240.495 31.7086C243.352 31.7086 245.409 33.1943 245.409 36.1657V39.0229C243.581 37.5372 242.209 36.6229 239.809 36.6229C236.038 36.6229 232.724 39.2515 232.724 43.1372C232.724 46.9086 235.695 49.4229 239.352 49.4229C241.752 49.4229 243.695 48.6229 245.409 46.9086V49.08H251.009V46.4515H248.495V35.3657ZM245.295 44.1657C244.152 45.9943 242.552 47.1372 240.266 47.1372C237.866 47.1372 235.581 45.5372 235.581 42.9086C235.581 40.28 237.866 38.7943 240.152 38.7943C242.552 38.7943 243.924 40.0515 245.295 41.88V44.1657Z" fill="black"></path><path id="Vector_16" d="M259.695 33.7658V29.6515H253.98V32.2801H256.609V46.4515H253.98V49.0801H262.323V46.4515H259.695V39.3658C259.695 35.8229 260.838 32.1658 265.066 32.1658C265.523 32.1658 265.98 32.1658 266.438 32.2801V29.0801C262.895 29.3086 261.295 30.7944 259.695 33.7658Z" fill="black"></path><path id="Vector_17" d="M259.695 33.7658V29.6515H253.98V32.2801H256.609V46.4515H253.98V49.0801H262.323V46.4515H259.695V39.3658C259.695 35.8229 260.838 32.1658 265.066 32.1658C265.523 32.1658 265.98 32.1658 266.438 32.2801V29.0801C262.895 29.3086 261.295 30.7944 259.695 33.7658Z" fill="black"></path><path id="Vector_18" d="M276.952 39.0232L281.981 33.9946C283.581 32.5089 284.038 32.2803 286.209 32.2803V29.6518H277.981V32.2803C278.324 32.2803 279.924 32.0518 279.924 32.6232C279.924 32.966 279.352 33.4232 279.124 33.6518L273.867 38.9089V16.0518H268.038V18.6803H270.667V46.4518H268.038V49.0803H276.267V46.4518H273.981V40.5089L281.981 49.0803H286.438V46.4518H283.695L276.952 39.0232Z" fill="black"></path><path id="Vector_19" d="M276.952 39.0232L281.981 33.9946C283.581 32.5089 284.038 32.2803 286.209 32.2803V29.6518H277.981V32.2803C278.324 32.2803 279.924 32.0518 279.924 32.6232C279.924 32.966 279.352 33.4232 279.124 33.6518L273.867 38.9089V16.0518H268.038V18.6803H270.667V46.4518H268.038V49.0803H276.267V46.4518H273.981V40.5089L281.981 49.0803H286.438V46.4518H283.695L276.952 39.0232Z" fill="black"></path><path id="Vector_20" d="M294.781 21.4231C294.781 20.2803 293.638 20.2803 293.41 20.2803H291.695V23.9374H292.495V22.4517H293.41L293.981 23.9374H294.781L294.095 22.3374C294.324 22.3374 294.781 22.1088 294.781 21.4231ZM293.295 21.9946H292.495V20.966H293.41C293.867 20.966 294.095 21.1946 294.095 21.4231C293.981 21.8803 293.524 21.9946 293.295 21.9946Z" fill="black"></path><path id="Vector_21" d="M293.066 17.9941C290.781 17.9941 288.952 19.8227 288.952 22.1084C288.952 24.3941 290.781 26.2227 293.066 26.2227C295.352 26.2227 297.181 24.3941 297.181 22.1084C297.181 19.8227 295.352 17.9941 293.066 17.9941ZM293.066 25.6513C291.238 25.6513 289.638 24.1656 289.638 22.2227C289.638 20.2799 291.238 18.7941 293.066 18.7941C294.895 18.7941 296.495 20.2799 296.495 22.2227C296.495 24.0513 295.009 25.6513 293.066 25.6513Z" fill="black"></path></g></g></g><defs><clipPath id="clip0"><rect width="297.143" height="64" fill="white" transform="translate(0.266602 0.280273)"></rect></clipPath><clipPath id="clip1"><rect width="296.914" height="64" fill="white" transform="translate(0.266602 0.280273)"></rect></clipPath></defs></svg> 