<?xml version="1.0" encoding="UTF-8"?>
<!DOCTYPE svg PUBLIC "-//W3C//DTD SVG 1.1//EN" "http://www.w3.org/Graphics/SVG/1.1/DTD/svg11.dtd">
<svg xmlns="http://www.w3.org/2000/svg" version="1.1" width="732px" height="702px" style="shape-rendering:geometricPrecision; text-rendering:geometricPrecision; image-rendering:optimizeQuality; fill-rule:evenodd; clip-rule:evenodd" xmlns:xlink="http://www.w3.org/1999/xlink">
<g><path style="opacity:1" fill="#fefefe" d="M -0.5,-0.5 C 243.5,-0.5 487.5,-0.5 731.5,-0.5C 731.5,233.5 731.5,467.5 731.5,701.5C 487.5,701.5 243.5,701.5 -0.5,701.5C -0.5,467.5 -0.5,233.5 -0.5,-0.5 Z"/></g>
<g><path style="opacity:1" fill="#111111" d="M 353.5,22.5 C 465.103,19.7402 556.603,61.0735 628,146.5C 692.886,233.107 712.219,329.107 686,434.5C 657.531,527.972 599.697,596.805 512.5,641C 411.947,685.727 312.947,682.727 215.5,632C 123.76,578.776 68.9267,499.609 51,394.5C 38.078,283.926 70.9114,189.426 149.5,111C 207.011,57.759 275.011,28.259 353.5,22.5 Z"/></g>
<g><path style="opacity:1" fill="#262626" d="M 357.5,24.5 C 471.747,22.8816 563.58,66.8816 633,156.5C 692.003,240.528 709.003,332.528 684,432.5C 652.639,537.862 585.806,610.695 483.5,651C 375.422,686.745 274.755,672.411 181.5,608C 82.0378,530.035 39.2045,427.868 53,301.5C 72.8951,186.851 135.062,104.017 239.5,53C 277.263,36.5471 316.596,27.0471 357.5,24.5 Z"/></g>
<g><path style="opacity:1" fill="#fcfcfc" d="M 343.5,156.5 C 345.888,157.219 347.388,158.885 348,161.5C 393.276,259.712 438.776,357.712 484.5,455.5C 476.401,460.487 467.901,464.82 459,468.5C 412.699,369.228 366.366,269.895 320,170.5C 319.251,169.365 319.417,168.365 320.5,167.5C 328.356,164.005 336.022,160.339 343.5,156.5 Z"/></g>
<g><path style="opacity:1" fill="#fcfcfc" d="M 417.5,156.5 C 418.496,156.414 419.329,156.748 420,157.5C 467.167,256.5 514.333,355.5 561.5,454.5C 553.237,459.215 544.737,463.548 536,467.5C 487.68,367.862 440.18,267.862 393.5,167.5C 401.766,164.366 409.766,160.699 417.5,156.5 Z"/></g>
<g><path style="opacity:1" fill="#fcfcfc" d="M 490.5,156.5 C 491.496,156.414 492.329,156.748 493,157.5C 540.737,256.21 588.57,354.877 636.5,453.5C 628.454,458.477 619.954,462.811 611,466.5C 562.319,367.803 514.152,268.803 466.5,169.5C 474.239,164.631 482.239,160.298 490.5,156.5 Z"/></g>
<g><path style="opacity:1" fill="#fcfcfc" d="M 245.5,157.5 C 255.5,157.5 265.5,157.5 275.5,157.5C 317.768,258.627 360.434,359.627 403.5,460.5C 395.626,464.27 387.626,467.77 379.5,471C 378.365,471.749 377.365,471.583 376.5,470.5C 364.833,443.167 353.167,415.833 341.5,388.5C 290.503,387.333 239.503,387.167 188.5,388C 176.611,417.101 165.111,446.268 154,475.5C 145.167,472 136.333,468.5 127.5,465C 166.747,362.42 206.08,259.92 245.5,157.5 Z"/></g>
<g><path style="opacity:1" fill="#262626" d="M 260.5,199.5 C 283.666,251.845 306.333,304.511 328.5,357.5C 285.504,358.667 242.504,358.833 199.5,358C 220.204,305.406 240.537,252.573 260.5,199.5 Z"/></g>
</svg>
